<mxfile host="Electron" modified="2024-06-05T11:44:24.249Z" agent="Mozilla/5.0 (Windows NT 10.0; Win64; x64) AppleWebKit/537.36 (KHTML, like Gecko) draw.io/24.4.13 Chrome/124.0.6367.207 Electron/30.0.6 Safari/537.36" etag="iZ_jhLCjNSMKxwKUFd3v" version="24.4.13" type="device">
  <diagram name="Page-1" id="zgqAgu3jPZLgE8d1G5fR">
    <mxGraphModel dx="1838" dy="1069" grid="1" gridSize="10" guides="1" tooltips="1" connect="1" arrows="1" fold="1" page="1" pageScale="1" pageWidth="1169" pageHeight="827" math="1" shadow="0">
      <root>
        <mxCell id="0" />
        <object label="Grid" id="Ubt92ZxgmZUFssLvZX3g-11">
          <mxCell style="" parent="0" />
        </object>
        <mxCell id="Ubt92ZxgmZUFssLvZX3g-12" value="" style="shape=table;startSize=0;container=1;collapsible=0;childLayout=tableLayout;fontSize=16;fontStyle=1;horizontal=1;" parent="Ubt92ZxgmZUFssLvZX3g-11" vertex="1">
          <mxGeometry x="22" y="54" width="700" height="700" as="geometry" />
        </mxCell>
        <mxCell id="Ubt92ZxgmZUFssLvZX3g-13" style="shape=tableRow;horizontal=0;startSize=0;swimlaneHead=0;swimlaneBody=0;strokeColor=inherit;top=0;left=0;bottom=0;right=0;collapsible=0;dropTarget=0;fillColor=none;points=[[0,0.5],[1,0.5]];portConstraint=eastwest;fontSize=16;fontStyle=1" parent="Ubt92ZxgmZUFssLvZX3g-12" vertex="1">
          <mxGeometry width="700" height="58" as="geometry" />
        </mxCell>
        <mxCell id="Ubt92ZxgmZUFssLvZX3g-14" value="" style="shape=partialRectangle;html=1;whiteSpace=wrap;connectable=0;strokeColor=inherit;overflow=hidden;fillColor=none;top=0;left=0;bottom=0;right=0;pointerEvents=1;fontSize=16;fontStyle=1" parent="Ubt92ZxgmZUFssLvZX3g-13" vertex="1">
          <mxGeometry width="58" height="58" as="geometry">
            <mxRectangle width="58" height="58" as="alternateBounds" />
          </mxGeometry>
        </mxCell>
        <mxCell id="Ubt92ZxgmZUFssLvZX3g-15" value="" style="shape=partialRectangle;html=1;whiteSpace=wrap;connectable=0;strokeColor=inherit;overflow=hidden;fillColor=none;top=0;left=0;bottom=0;right=0;pointerEvents=1;fontSize=16;fontStyle=1" parent="Ubt92ZxgmZUFssLvZX3g-13" vertex="1">
          <mxGeometry x="58" width="59" height="58" as="geometry">
            <mxRectangle width="59" height="58" as="alternateBounds" />
          </mxGeometry>
        </mxCell>
        <mxCell id="Ubt92ZxgmZUFssLvZX3g-16" value="" style="shape=partialRectangle;html=1;whiteSpace=wrap;connectable=0;strokeColor=inherit;overflow=hidden;fillColor=none;top=0;left=0;bottom=0;right=0;pointerEvents=1;fontSize=16;fontStyle=1" parent="Ubt92ZxgmZUFssLvZX3g-13" vertex="1">
          <mxGeometry x="117" width="58" height="58" as="geometry">
            <mxRectangle width="58" height="58" as="alternateBounds" />
          </mxGeometry>
        </mxCell>
        <mxCell id="Ubt92ZxgmZUFssLvZX3g-17" value="" style="shape=partialRectangle;html=1;whiteSpace=wrap;connectable=0;strokeColor=inherit;overflow=hidden;fillColor=none;top=0;left=0;bottom=0;right=0;pointerEvents=1;fontSize=16;fontStyle=1" parent="Ubt92ZxgmZUFssLvZX3g-13" vertex="1">
          <mxGeometry x="175" width="58" height="58" as="geometry">
            <mxRectangle width="58" height="58" as="alternateBounds" />
          </mxGeometry>
        </mxCell>
        <mxCell id="Ubt92ZxgmZUFssLvZX3g-18" value="" style="shape=partialRectangle;html=1;whiteSpace=wrap;connectable=0;strokeColor=inherit;overflow=hidden;fillColor=none;top=0;left=0;bottom=0;right=0;pointerEvents=1;fontSize=16;fontStyle=1" parent="Ubt92ZxgmZUFssLvZX3g-13" vertex="1">
          <mxGeometry x="233" width="59" height="58" as="geometry">
            <mxRectangle width="59" height="58" as="alternateBounds" />
          </mxGeometry>
        </mxCell>
        <mxCell id="Ubt92ZxgmZUFssLvZX3g-19" value="" style="shape=partialRectangle;html=1;whiteSpace=wrap;connectable=0;strokeColor=inherit;overflow=hidden;fillColor=none;top=0;left=0;bottom=0;right=0;pointerEvents=1;fontSize=16;fontStyle=1" parent="Ubt92ZxgmZUFssLvZX3g-13" vertex="1">
          <mxGeometry x="292" width="57" height="58" as="geometry">
            <mxRectangle width="57" height="58" as="alternateBounds" />
          </mxGeometry>
        </mxCell>
        <mxCell id="Ubt92ZxgmZUFssLvZX3g-20" value="" style="shape=partialRectangle;html=1;whiteSpace=wrap;connectable=0;strokeColor=inherit;overflow=hidden;fillColor=none;top=0;left=0;bottom=0;right=0;pointerEvents=1;fontSize=16;fontStyle=1" parent="Ubt92ZxgmZUFssLvZX3g-13" vertex="1">
          <mxGeometry x="349" width="59" height="58" as="geometry">
            <mxRectangle width="59" height="58" as="alternateBounds" />
          </mxGeometry>
        </mxCell>
        <mxCell id="Ubt92ZxgmZUFssLvZX3g-21" value="" style="shape=partialRectangle;html=1;whiteSpace=wrap;connectable=0;strokeColor=inherit;overflow=hidden;fillColor=none;top=0;left=0;bottom=0;right=0;pointerEvents=1;fontSize=16;fontStyle=1" parent="Ubt92ZxgmZUFssLvZX3g-13" vertex="1">
          <mxGeometry x="408" width="59" height="58" as="geometry">
            <mxRectangle width="59" height="58" as="alternateBounds" />
          </mxGeometry>
        </mxCell>
        <mxCell id="Ubt92ZxgmZUFssLvZX3g-22" value="" style="shape=partialRectangle;html=1;whiteSpace=wrap;connectable=0;strokeColor=inherit;overflow=hidden;fillColor=none;top=0;left=0;bottom=0;right=0;pointerEvents=1;fontSize=16;fontStyle=1" parent="Ubt92ZxgmZUFssLvZX3g-13" vertex="1">
          <mxGeometry x="467" width="58" height="58" as="geometry">
            <mxRectangle width="58" height="58" as="alternateBounds" />
          </mxGeometry>
        </mxCell>
        <mxCell id="Ubt92ZxgmZUFssLvZX3g-23" value="" style="shape=partialRectangle;html=1;whiteSpace=wrap;connectable=0;strokeColor=inherit;overflow=hidden;fillColor=none;top=0;left=0;bottom=0;right=0;pointerEvents=1;fontSize=16;fontStyle=1" parent="Ubt92ZxgmZUFssLvZX3g-13" vertex="1">
          <mxGeometry x="525" width="58" height="58" as="geometry">
            <mxRectangle width="58" height="58" as="alternateBounds" />
          </mxGeometry>
        </mxCell>
        <mxCell id="Ubt92ZxgmZUFssLvZX3g-24" value="" style="shape=partialRectangle;html=1;whiteSpace=wrap;connectable=0;strokeColor=inherit;overflow=hidden;fillColor=none;top=0;left=0;bottom=0;right=0;pointerEvents=1;fontSize=16;fontStyle=1" parent="Ubt92ZxgmZUFssLvZX3g-13" vertex="1">
          <mxGeometry x="583" width="58" height="58" as="geometry">
            <mxRectangle width="58" height="58" as="alternateBounds" />
          </mxGeometry>
        </mxCell>
        <mxCell id="Ubt92ZxgmZUFssLvZX3g-25" value="" style="shape=partialRectangle;html=1;whiteSpace=wrap;connectable=0;strokeColor=inherit;overflow=hidden;fillColor=none;top=0;left=0;bottom=0;right=0;pointerEvents=1;fontSize=16;fontStyle=1" parent="Ubt92ZxgmZUFssLvZX3g-13" vertex="1">
          <mxGeometry x="641" width="59" height="58" as="geometry">
            <mxRectangle width="59" height="58" as="alternateBounds" />
          </mxGeometry>
        </mxCell>
        <mxCell id="Ubt92ZxgmZUFssLvZX3g-26" style="shape=tableRow;horizontal=0;startSize=0;swimlaneHead=0;swimlaneBody=0;strokeColor=inherit;top=0;left=0;bottom=0;right=0;collapsible=0;dropTarget=0;fillColor=none;points=[[0,0.5],[1,0.5]];portConstraint=eastwest;fontSize=16;fontStyle=1" parent="Ubt92ZxgmZUFssLvZX3g-12" vertex="1">
          <mxGeometry y="58" width="700" height="59" as="geometry" />
        </mxCell>
        <mxCell id="Ubt92ZxgmZUFssLvZX3g-27" value="" style="shape=partialRectangle;html=1;whiteSpace=wrap;connectable=0;strokeColor=inherit;overflow=hidden;fillColor=none;top=0;left=0;bottom=0;right=0;pointerEvents=1;fontSize=16;fontStyle=1" parent="Ubt92ZxgmZUFssLvZX3g-26" vertex="1">
          <mxGeometry width="58" height="59" as="geometry">
            <mxRectangle width="58" height="59" as="alternateBounds" />
          </mxGeometry>
        </mxCell>
        <mxCell id="Ubt92ZxgmZUFssLvZX3g-28" value="" style="shape=partialRectangle;html=1;whiteSpace=wrap;connectable=0;strokeColor=inherit;overflow=hidden;fillColor=none;top=0;left=0;bottom=0;right=0;pointerEvents=1;fontSize=16;fontStyle=1" parent="Ubt92ZxgmZUFssLvZX3g-26" vertex="1">
          <mxGeometry x="58" width="59" height="59" as="geometry">
            <mxRectangle width="59" height="59" as="alternateBounds" />
          </mxGeometry>
        </mxCell>
        <mxCell id="Ubt92ZxgmZUFssLvZX3g-29" value="" style="shape=partialRectangle;html=1;whiteSpace=wrap;connectable=0;strokeColor=inherit;overflow=hidden;fillColor=none;top=0;left=0;bottom=0;right=0;pointerEvents=1;fontSize=16;fontStyle=1" parent="Ubt92ZxgmZUFssLvZX3g-26" vertex="1">
          <mxGeometry x="117" width="58" height="59" as="geometry">
            <mxRectangle width="58" height="59" as="alternateBounds" />
          </mxGeometry>
        </mxCell>
        <mxCell id="Ubt92ZxgmZUFssLvZX3g-30" value="" style="shape=partialRectangle;html=1;whiteSpace=wrap;connectable=0;strokeColor=inherit;overflow=hidden;fillColor=none;top=0;left=0;bottom=0;right=0;pointerEvents=1;fontSize=16;fontStyle=1" parent="Ubt92ZxgmZUFssLvZX3g-26" vertex="1">
          <mxGeometry x="175" width="58" height="59" as="geometry">
            <mxRectangle width="58" height="59" as="alternateBounds" />
          </mxGeometry>
        </mxCell>
        <mxCell id="Ubt92ZxgmZUFssLvZX3g-31" value="" style="shape=partialRectangle;html=1;whiteSpace=wrap;connectable=0;strokeColor=inherit;overflow=hidden;fillColor=none;top=0;left=0;bottom=0;right=0;pointerEvents=1;fontSize=16;fontStyle=1" parent="Ubt92ZxgmZUFssLvZX3g-26" vertex="1">
          <mxGeometry x="233" width="59" height="59" as="geometry">
            <mxRectangle width="59" height="59" as="alternateBounds" />
          </mxGeometry>
        </mxCell>
        <mxCell id="Ubt92ZxgmZUFssLvZX3g-32" value="" style="shape=partialRectangle;html=1;whiteSpace=wrap;connectable=0;strokeColor=inherit;overflow=hidden;fillColor=none;top=0;left=0;bottom=0;right=0;pointerEvents=1;fontSize=16;fontStyle=1" parent="Ubt92ZxgmZUFssLvZX3g-26" vertex="1">
          <mxGeometry x="292" width="57" height="59" as="geometry">
            <mxRectangle width="57" height="59" as="alternateBounds" />
          </mxGeometry>
        </mxCell>
        <mxCell id="Ubt92ZxgmZUFssLvZX3g-33" value="" style="shape=partialRectangle;html=1;whiteSpace=wrap;connectable=0;strokeColor=inherit;overflow=hidden;fillColor=none;top=0;left=0;bottom=0;right=0;pointerEvents=1;fontSize=16;fontStyle=1" parent="Ubt92ZxgmZUFssLvZX3g-26" vertex="1">
          <mxGeometry x="349" width="59" height="59" as="geometry">
            <mxRectangle width="59" height="59" as="alternateBounds" />
          </mxGeometry>
        </mxCell>
        <mxCell id="Ubt92ZxgmZUFssLvZX3g-34" value="" style="shape=partialRectangle;html=1;whiteSpace=wrap;connectable=0;strokeColor=inherit;overflow=hidden;fillColor=none;top=0;left=0;bottom=0;right=0;pointerEvents=1;fontSize=16;fontStyle=1" parent="Ubt92ZxgmZUFssLvZX3g-26" vertex="1">
          <mxGeometry x="408" width="59" height="59" as="geometry">
            <mxRectangle width="59" height="59" as="alternateBounds" />
          </mxGeometry>
        </mxCell>
        <mxCell id="Ubt92ZxgmZUFssLvZX3g-35" value="" style="shape=partialRectangle;html=1;whiteSpace=wrap;connectable=0;strokeColor=inherit;overflow=hidden;fillColor=none;top=0;left=0;bottom=0;right=0;pointerEvents=1;fontSize=16;fontStyle=1" parent="Ubt92ZxgmZUFssLvZX3g-26" vertex="1">
          <mxGeometry x="467" width="58" height="59" as="geometry">
            <mxRectangle width="58" height="59" as="alternateBounds" />
          </mxGeometry>
        </mxCell>
        <mxCell id="Ubt92ZxgmZUFssLvZX3g-36" value="" style="shape=partialRectangle;html=1;whiteSpace=wrap;connectable=0;strokeColor=inherit;overflow=hidden;fillColor=none;top=0;left=0;bottom=0;right=0;pointerEvents=1;fontSize=16;fontStyle=1" parent="Ubt92ZxgmZUFssLvZX3g-26" vertex="1">
          <mxGeometry x="525" width="58" height="59" as="geometry">
            <mxRectangle width="58" height="59" as="alternateBounds" />
          </mxGeometry>
        </mxCell>
        <mxCell id="Ubt92ZxgmZUFssLvZX3g-37" value="" style="shape=partialRectangle;html=1;whiteSpace=wrap;connectable=0;strokeColor=inherit;overflow=hidden;fillColor=none;top=0;left=0;bottom=0;right=0;pointerEvents=1;fontSize=16;fontStyle=1" parent="Ubt92ZxgmZUFssLvZX3g-26" vertex="1">
          <mxGeometry x="583" width="58" height="59" as="geometry">
            <mxRectangle width="58" height="59" as="alternateBounds" />
          </mxGeometry>
        </mxCell>
        <mxCell id="Ubt92ZxgmZUFssLvZX3g-38" value="" style="shape=partialRectangle;html=1;whiteSpace=wrap;connectable=0;strokeColor=inherit;overflow=hidden;fillColor=none;top=0;left=0;bottom=0;right=0;pointerEvents=1;fontSize=16;fontStyle=1" parent="Ubt92ZxgmZUFssLvZX3g-26" vertex="1">
          <mxGeometry x="641" width="59" height="59" as="geometry">
            <mxRectangle width="59" height="59" as="alternateBounds" />
          </mxGeometry>
        </mxCell>
        <mxCell id="Ubt92ZxgmZUFssLvZX3g-39" style="shape=tableRow;horizontal=0;startSize=0;swimlaneHead=0;swimlaneBody=0;strokeColor=inherit;top=0;left=0;bottom=0;right=0;collapsible=0;dropTarget=0;fillColor=none;points=[[0,0.5],[1,0.5]];portConstraint=eastwest;fontSize=16;fontStyle=1" parent="Ubt92ZxgmZUFssLvZX3g-12" vertex="1">
          <mxGeometry y="117" width="700" height="58" as="geometry" />
        </mxCell>
        <mxCell id="Ubt92ZxgmZUFssLvZX3g-40" value="" style="shape=partialRectangle;html=1;whiteSpace=wrap;connectable=0;strokeColor=inherit;overflow=hidden;fillColor=none;top=0;left=0;bottom=0;right=0;pointerEvents=1;fontSize=16;fontStyle=1" parent="Ubt92ZxgmZUFssLvZX3g-39" vertex="1">
          <mxGeometry width="58" height="58" as="geometry">
            <mxRectangle width="58" height="58" as="alternateBounds" />
          </mxGeometry>
        </mxCell>
        <mxCell id="Ubt92ZxgmZUFssLvZX3g-41" value="" style="shape=partialRectangle;html=1;whiteSpace=wrap;connectable=0;strokeColor=inherit;overflow=hidden;fillColor=none;top=0;left=0;bottom=0;right=0;pointerEvents=1;fontSize=16;fontStyle=1" parent="Ubt92ZxgmZUFssLvZX3g-39" vertex="1">
          <mxGeometry x="58" width="59" height="58" as="geometry">
            <mxRectangle width="59" height="58" as="alternateBounds" />
          </mxGeometry>
        </mxCell>
        <mxCell id="Ubt92ZxgmZUFssLvZX3g-42" value="" style="shape=partialRectangle;html=1;whiteSpace=wrap;connectable=0;strokeColor=inherit;overflow=hidden;fillColor=none;top=0;left=0;bottom=0;right=0;pointerEvents=1;fontSize=16;fontStyle=1" parent="Ubt92ZxgmZUFssLvZX3g-39" vertex="1">
          <mxGeometry x="117" width="58" height="58" as="geometry">
            <mxRectangle width="58" height="58" as="alternateBounds" />
          </mxGeometry>
        </mxCell>
        <mxCell id="Ubt92ZxgmZUFssLvZX3g-43" value="" style="shape=partialRectangle;html=1;whiteSpace=wrap;connectable=0;strokeColor=inherit;overflow=hidden;fillColor=none;top=0;left=0;bottom=0;right=0;pointerEvents=1;fontSize=16;fontStyle=1" parent="Ubt92ZxgmZUFssLvZX3g-39" vertex="1">
          <mxGeometry x="175" width="58" height="58" as="geometry">
            <mxRectangle width="58" height="58" as="alternateBounds" />
          </mxGeometry>
        </mxCell>
        <mxCell id="Ubt92ZxgmZUFssLvZX3g-44" value="" style="shape=partialRectangle;html=1;whiteSpace=wrap;connectable=0;strokeColor=inherit;overflow=hidden;fillColor=none;top=0;left=0;bottom=0;right=0;pointerEvents=1;fontSize=16;fontStyle=1" parent="Ubt92ZxgmZUFssLvZX3g-39" vertex="1">
          <mxGeometry x="233" width="59" height="58" as="geometry">
            <mxRectangle width="59" height="58" as="alternateBounds" />
          </mxGeometry>
        </mxCell>
        <mxCell id="Ubt92ZxgmZUFssLvZX3g-45" value="" style="shape=partialRectangle;html=1;whiteSpace=wrap;connectable=0;strokeColor=inherit;overflow=hidden;fillColor=none;top=0;left=0;bottom=0;right=0;pointerEvents=1;fontSize=16;fontStyle=1" parent="Ubt92ZxgmZUFssLvZX3g-39" vertex="1">
          <mxGeometry x="292" width="57" height="58" as="geometry">
            <mxRectangle width="57" height="58" as="alternateBounds" />
          </mxGeometry>
        </mxCell>
        <mxCell id="Ubt92ZxgmZUFssLvZX3g-46" value="" style="shape=partialRectangle;html=1;whiteSpace=wrap;connectable=0;strokeColor=inherit;overflow=hidden;fillColor=none;top=0;left=0;bottom=0;right=0;pointerEvents=1;fontSize=16;fontStyle=1" parent="Ubt92ZxgmZUFssLvZX3g-39" vertex="1">
          <mxGeometry x="349" width="59" height="58" as="geometry">
            <mxRectangle width="59" height="58" as="alternateBounds" />
          </mxGeometry>
        </mxCell>
        <mxCell id="Ubt92ZxgmZUFssLvZX3g-47" value="" style="shape=partialRectangle;html=1;whiteSpace=wrap;connectable=0;strokeColor=inherit;overflow=hidden;fillColor=none;top=0;left=0;bottom=0;right=0;pointerEvents=1;fontSize=16;fontStyle=1" parent="Ubt92ZxgmZUFssLvZX3g-39" vertex="1">
          <mxGeometry x="408" width="59" height="58" as="geometry">
            <mxRectangle width="59" height="58" as="alternateBounds" />
          </mxGeometry>
        </mxCell>
        <mxCell id="Ubt92ZxgmZUFssLvZX3g-48" value="" style="shape=partialRectangle;html=1;whiteSpace=wrap;connectable=0;strokeColor=inherit;overflow=hidden;fillColor=none;top=0;left=0;bottom=0;right=0;pointerEvents=1;fontSize=16;fontStyle=1" parent="Ubt92ZxgmZUFssLvZX3g-39" vertex="1">
          <mxGeometry x="467" width="58" height="58" as="geometry">
            <mxRectangle width="58" height="58" as="alternateBounds" />
          </mxGeometry>
        </mxCell>
        <mxCell id="Ubt92ZxgmZUFssLvZX3g-49" value="" style="shape=partialRectangle;html=1;whiteSpace=wrap;connectable=0;strokeColor=inherit;overflow=hidden;fillColor=none;top=0;left=0;bottom=0;right=0;pointerEvents=1;fontSize=16;fontStyle=1" parent="Ubt92ZxgmZUFssLvZX3g-39" vertex="1">
          <mxGeometry x="525" width="58" height="58" as="geometry">
            <mxRectangle width="58" height="58" as="alternateBounds" />
          </mxGeometry>
        </mxCell>
        <mxCell id="Ubt92ZxgmZUFssLvZX3g-50" value="" style="shape=partialRectangle;html=1;whiteSpace=wrap;connectable=0;strokeColor=inherit;overflow=hidden;fillColor=none;top=0;left=0;bottom=0;right=0;pointerEvents=1;fontSize=16;fontStyle=1" parent="Ubt92ZxgmZUFssLvZX3g-39" vertex="1">
          <mxGeometry x="583" width="58" height="58" as="geometry">
            <mxRectangle width="58" height="58" as="alternateBounds" />
          </mxGeometry>
        </mxCell>
        <mxCell id="Ubt92ZxgmZUFssLvZX3g-51" value="" style="shape=partialRectangle;html=1;whiteSpace=wrap;connectable=0;strokeColor=inherit;overflow=hidden;fillColor=none;top=0;left=0;bottom=0;right=0;pointerEvents=1;fontSize=16;fontStyle=1" parent="Ubt92ZxgmZUFssLvZX3g-39" vertex="1">
          <mxGeometry x="641" width="59" height="58" as="geometry">
            <mxRectangle width="59" height="58" as="alternateBounds" />
          </mxGeometry>
        </mxCell>
        <mxCell id="Ubt92ZxgmZUFssLvZX3g-52" style="shape=tableRow;horizontal=0;startSize=0;swimlaneHead=0;swimlaneBody=0;strokeColor=inherit;top=0;left=0;bottom=0;right=0;collapsible=0;dropTarget=0;fillColor=none;points=[[0,0.5],[1,0.5]];portConstraint=eastwest;fontSize=16;fontStyle=1" parent="Ubt92ZxgmZUFssLvZX3g-12" vertex="1">
          <mxGeometry y="175" width="700" height="58" as="geometry" />
        </mxCell>
        <mxCell id="Ubt92ZxgmZUFssLvZX3g-53" value="" style="shape=partialRectangle;html=1;whiteSpace=wrap;connectable=0;strokeColor=inherit;overflow=hidden;fillColor=none;top=0;left=0;bottom=0;right=0;pointerEvents=1;fontSize=16;fontStyle=1" parent="Ubt92ZxgmZUFssLvZX3g-52" vertex="1">
          <mxGeometry width="58" height="58" as="geometry">
            <mxRectangle width="58" height="58" as="alternateBounds" />
          </mxGeometry>
        </mxCell>
        <mxCell id="Ubt92ZxgmZUFssLvZX3g-54" value="" style="shape=partialRectangle;html=1;whiteSpace=wrap;connectable=0;strokeColor=inherit;overflow=hidden;fillColor=none;top=0;left=0;bottom=0;right=0;pointerEvents=1;fontSize=16;fontStyle=1" parent="Ubt92ZxgmZUFssLvZX3g-52" vertex="1">
          <mxGeometry x="58" width="59" height="58" as="geometry">
            <mxRectangle width="59" height="58" as="alternateBounds" />
          </mxGeometry>
        </mxCell>
        <mxCell id="Ubt92ZxgmZUFssLvZX3g-55" value="" style="shape=partialRectangle;html=1;whiteSpace=wrap;connectable=0;strokeColor=inherit;overflow=hidden;fillColor=none;top=0;left=0;bottom=0;right=0;pointerEvents=1;fontSize=16;fontStyle=1" parent="Ubt92ZxgmZUFssLvZX3g-52" vertex="1">
          <mxGeometry x="117" width="58" height="58" as="geometry">
            <mxRectangle width="58" height="58" as="alternateBounds" />
          </mxGeometry>
        </mxCell>
        <mxCell id="Ubt92ZxgmZUFssLvZX3g-56" value="" style="shape=partialRectangle;html=1;whiteSpace=wrap;connectable=0;strokeColor=inherit;overflow=hidden;fillColor=none;top=0;left=0;bottom=0;right=0;pointerEvents=1;fontSize=16;fontStyle=1" parent="Ubt92ZxgmZUFssLvZX3g-52" vertex="1">
          <mxGeometry x="175" width="58" height="58" as="geometry">
            <mxRectangle width="58" height="58" as="alternateBounds" />
          </mxGeometry>
        </mxCell>
        <mxCell id="Ubt92ZxgmZUFssLvZX3g-57" value="" style="shape=partialRectangle;html=1;whiteSpace=wrap;connectable=0;strokeColor=inherit;overflow=hidden;fillColor=none;top=0;left=0;bottom=0;right=0;pointerEvents=1;fontSize=16;fontStyle=1" parent="Ubt92ZxgmZUFssLvZX3g-52" vertex="1">
          <mxGeometry x="233" width="59" height="58" as="geometry">
            <mxRectangle width="59" height="58" as="alternateBounds" />
          </mxGeometry>
        </mxCell>
        <mxCell id="Ubt92ZxgmZUFssLvZX3g-58" value="" style="shape=partialRectangle;html=1;whiteSpace=wrap;connectable=0;strokeColor=inherit;overflow=hidden;fillColor=none;top=0;left=0;bottom=0;right=0;pointerEvents=1;fontSize=16;fontStyle=1" parent="Ubt92ZxgmZUFssLvZX3g-52" vertex="1">
          <mxGeometry x="292" width="57" height="58" as="geometry">
            <mxRectangle width="57" height="58" as="alternateBounds" />
          </mxGeometry>
        </mxCell>
        <mxCell id="Ubt92ZxgmZUFssLvZX3g-59" value="" style="shape=partialRectangle;html=1;whiteSpace=wrap;connectable=0;strokeColor=inherit;overflow=hidden;fillColor=none;top=0;left=0;bottom=0;right=0;pointerEvents=1;fontSize=16;fontStyle=1" parent="Ubt92ZxgmZUFssLvZX3g-52" vertex="1">
          <mxGeometry x="349" width="59" height="58" as="geometry">
            <mxRectangle width="59" height="58" as="alternateBounds" />
          </mxGeometry>
        </mxCell>
        <mxCell id="Ubt92ZxgmZUFssLvZX3g-60" value="" style="shape=partialRectangle;html=1;whiteSpace=wrap;connectable=0;strokeColor=inherit;overflow=hidden;fillColor=none;top=0;left=0;bottom=0;right=0;pointerEvents=1;fontSize=16;fontStyle=1" parent="Ubt92ZxgmZUFssLvZX3g-52" vertex="1">
          <mxGeometry x="408" width="59" height="58" as="geometry">
            <mxRectangle width="59" height="58" as="alternateBounds" />
          </mxGeometry>
        </mxCell>
        <mxCell id="Ubt92ZxgmZUFssLvZX3g-61" value="" style="shape=partialRectangle;html=1;whiteSpace=wrap;connectable=0;strokeColor=inherit;overflow=hidden;fillColor=none;top=0;left=0;bottom=0;right=0;pointerEvents=1;fontSize=16;fontStyle=1" parent="Ubt92ZxgmZUFssLvZX3g-52" vertex="1">
          <mxGeometry x="467" width="58" height="58" as="geometry">
            <mxRectangle width="58" height="58" as="alternateBounds" />
          </mxGeometry>
        </mxCell>
        <mxCell id="Ubt92ZxgmZUFssLvZX3g-62" value="" style="shape=partialRectangle;html=1;whiteSpace=wrap;connectable=0;strokeColor=inherit;overflow=hidden;fillColor=none;top=0;left=0;bottom=0;right=0;pointerEvents=1;fontSize=16;fontStyle=1" parent="Ubt92ZxgmZUFssLvZX3g-52" vertex="1">
          <mxGeometry x="525" width="58" height="58" as="geometry">
            <mxRectangle width="58" height="58" as="alternateBounds" />
          </mxGeometry>
        </mxCell>
        <mxCell id="Ubt92ZxgmZUFssLvZX3g-63" value="" style="shape=partialRectangle;html=1;whiteSpace=wrap;connectable=0;strokeColor=inherit;overflow=hidden;fillColor=none;top=0;left=0;bottom=0;right=0;pointerEvents=1;fontSize=16;fontStyle=1" parent="Ubt92ZxgmZUFssLvZX3g-52" vertex="1">
          <mxGeometry x="583" width="58" height="58" as="geometry">
            <mxRectangle width="58" height="58" as="alternateBounds" />
          </mxGeometry>
        </mxCell>
        <mxCell id="Ubt92ZxgmZUFssLvZX3g-64" value="" style="shape=partialRectangle;html=1;whiteSpace=wrap;connectable=0;strokeColor=inherit;overflow=hidden;fillColor=none;top=0;left=0;bottom=0;right=0;pointerEvents=1;fontSize=16;fontStyle=1" parent="Ubt92ZxgmZUFssLvZX3g-52" vertex="1">
          <mxGeometry x="641" width="59" height="58" as="geometry">
            <mxRectangle width="59" height="58" as="alternateBounds" />
          </mxGeometry>
        </mxCell>
        <mxCell id="Ubt92ZxgmZUFssLvZX3g-65" style="shape=tableRow;horizontal=0;startSize=0;swimlaneHead=0;swimlaneBody=0;strokeColor=inherit;top=0;left=0;bottom=0;right=0;collapsible=0;dropTarget=0;fillColor=none;points=[[0,0.5],[1,0.5]];portConstraint=eastwest;fontSize=16;fontStyle=1" parent="Ubt92ZxgmZUFssLvZX3g-12" vertex="1">
          <mxGeometry y="233" width="700" height="59" as="geometry" />
        </mxCell>
        <mxCell id="Ubt92ZxgmZUFssLvZX3g-66" value="" style="shape=partialRectangle;html=1;whiteSpace=wrap;connectable=0;strokeColor=inherit;overflow=hidden;fillColor=none;top=0;left=0;bottom=0;right=0;pointerEvents=1;fontSize=16;fontStyle=1" parent="Ubt92ZxgmZUFssLvZX3g-65" vertex="1">
          <mxGeometry width="58" height="59" as="geometry">
            <mxRectangle width="58" height="59" as="alternateBounds" />
          </mxGeometry>
        </mxCell>
        <mxCell id="Ubt92ZxgmZUFssLvZX3g-67" value="" style="shape=partialRectangle;html=1;whiteSpace=wrap;connectable=0;strokeColor=inherit;overflow=hidden;fillColor=none;top=0;left=0;bottom=0;right=0;pointerEvents=1;fontSize=16;fontStyle=1" parent="Ubt92ZxgmZUFssLvZX3g-65" vertex="1">
          <mxGeometry x="58" width="59" height="59" as="geometry">
            <mxRectangle width="59" height="59" as="alternateBounds" />
          </mxGeometry>
        </mxCell>
        <mxCell id="Ubt92ZxgmZUFssLvZX3g-68" value="" style="shape=partialRectangle;html=1;whiteSpace=wrap;connectable=0;strokeColor=inherit;overflow=hidden;fillColor=none;top=0;left=0;bottom=0;right=0;pointerEvents=1;fontSize=16;fontStyle=1" parent="Ubt92ZxgmZUFssLvZX3g-65" vertex="1">
          <mxGeometry x="117" width="58" height="59" as="geometry">
            <mxRectangle width="58" height="59" as="alternateBounds" />
          </mxGeometry>
        </mxCell>
        <mxCell id="Ubt92ZxgmZUFssLvZX3g-69" value="" style="shape=partialRectangle;html=1;whiteSpace=wrap;connectable=0;strokeColor=inherit;overflow=hidden;fillColor=none;top=0;left=0;bottom=0;right=0;pointerEvents=1;fontSize=16;fontStyle=1" parent="Ubt92ZxgmZUFssLvZX3g-65" vertex="1">
          <mxGeometry x="175" width="58" height="59" as="geometry">
            <mxRectangle width="58" height="59" as="alternateBounds" />
          </mxGeometry>
        </mxCell>
        <mxCell id="Ubt92ZxgmZUFssLvZX3g-70" value="" style="shape=partialRectangle;html=1;whiteSpace=wrap;connectable=0;strokeColor=inherit;overflow=hidden;fillColor=none;top=0;left=0;bottom=0;right=0;pointerEvents=1;fontSize=16;fontStyle=1" parent="Ubt92ZxgmZUFssLvZX3g-65" vertex="1">
          <mxGeometry x="233" width="59" height="59" as="geometry">
            <mxRectangle width="59" height="59" as="alternateBounds" />
          </mxGeometry>
        </mxCell>
        <mxCell id="Ubt92ZxgmZUFssLvZX3g-71" value="" style="shape=partialRectangle;html=1;whiteSpace=wrap;connectable=0;strokeColor=inherit;overflow=hidden;fillColor=none;top=0;left=0;bottom=0;right=0;pointerEvents=1;fontSize=16;fontStyle=1" parent="Ubt92ZxgmZUFssLvZX3g-65" vertex="1">
          <mxGeometry x="292" width="57" height="59" as="geometry">
            <mxRectangle width="57" height="59" as="alternateBounds" />
          </mxGeometry>
        </mxCell>
        <mxCell id="Ubt92ZxgmZUFssLvZX3g-72" value="" style="shape=partialRectangle;html=1;whiteSpace=wrap;connectable=0;strokeColor=inherit;overflow=hidden;fillColor=none;top=0;left=0;bottom=0;right=0;pointerEvents=1;fontSize=16;fontStyle=1" parent="Ubt92ZxgmZUFssLvZX3g-65" vertex="1">
          <mxGeometry x="349" width="59" height="59" as="geometry">
            <mxRectangle width="59" height="59" as="alternateBounds" />
          </mxGeometry>
        </mxCell>
        <mxCell id="Ubt92ZxgmZUFssLvZX3g-73" value="" style="shape=partialRectangle;html=1;whiteSpace=wrap;connectable=0;strokeColor=inherit;overflow=hidden;fillColor=none;top=0;left=0;bottom=0;right=0;pointerEvents=1;fontSize=16;fontStyle=1" parent="Ubt92ZxgmZUFssLvZX3g-65" vertex="1">
          <mxGeometry x="408" width="59" height="59" as="geometry">
            <mxRectangle width="59" height="59" as="alternateBounds" />
          </mxGeometry>
        </mxCell>
        <mxCell id="Ubt92ZxgmZUFssLvZX3g-74" value="" style="shape=partialRectangle;html=1;whiteSpace=wrap;connectable=0;strokeColor=inherit;overflow=hidden;fillColor=none;top=0;left=0;bottom=0;right=0;pointerEvents=1;fontSize=16;fontStyle=1" parent="Ubt92ZxgmZUFssLvZX3g-65" vertex="1">
          <mxGeometry x="467" width="58" height="59" as="geometry">
            <mxRectangle width="58" height="59" as="alternateBounds" />
          </mxGeometry>
        </mxCell>
        <mxCell id="Ubt92ZxgmZUFssLvZX3g-75" value="" style="shape=partialRectangle;html=1;whiteSpace=wrap;connectable=0;strokeColor=inherit;overflow=hidden;fillColor=none;top=0;left=0;bottom=0;right=0;pointerEvents=1;fontSize=16;fontStyle=1" parent="Ubt92ZxgmZUFssLvZX3g-65" vertex="1">
          <mxGeometry x="525" width="58" height="59" as="geometry">
            <mxRectangle width="58" height="59" as="alternateBounds" />
          </mxGeometry>
        </mxCell>
        <mxCell id="Ubt92ZxgmZUFssLvZX3g-76" value="" style="shape=partialRectangle;html=1;whiteSpace=wrap;connectable=0;strokeColor=inherit;overflow=hidden;fillColor=none;top=0;left=0;bottom=0;right=0;pointerEvents=1;fontSize=16;fontStyle=1" parent="Ubt92ZxgmZUFssLvZX3g-65" vertex="1">
          <mxGeometry x="583" width="58" height="59" as="geometry">
            <mxRectangle width="58" height="59" as="alternateBounds" />
          </mxGeometry>
        </mxCell>
        <mxCell id="Ubt92ZxgmZUFssLvZX3g-77" value="" style="shape=partialRectangle;html=1;whiteSpace=wrap;connectable=0;strokeColor=inherit;overflow=hidden;fillColor=none;top=0;left=0;bottom=0;right=0;pointerEvents=1;fontSize=16;fontStyle=1" parent="Ubt92ZxgmZUFssLvZX3g-65" vertex="1">
          <mxGeometry x="641" width="59" height="59" as="geometry">
            <mxRectangle width="59" height="59" as="alternateBounds" />
          </mxGeometry>
        </mxCell>
        <mxCell id="Ubt92ZxgmZUFssLvZX3g-78" style="shape=tableRow;horizontal=0;startSize=0;swimlaneHead=0;swimlaneBody=0;strokeColor=inherit;top=0;left=0;bottom=0;right=0;collapsible=0;dropTarget=0;fillColor=none;points=[[0,0.5],[1,0.5]];portConstraint=eastwest;fontSize=16;fontStyle=1" parent="Ubt92ZxgmZUFssLvZX3g-12" vertex="1">
          <mxGeometry y="292" width="700" height="58" as="geometry" />
        </mxCell>
        <mxCell id="Ubt92ZxgmZUFssLvZX3g-79" value="" style="shape=partialRectangle;html=1;whiteSpace=wrap;connectable=0;strokeColor=inherit;overflow=hidden;fillColor=none;top=0;left=0;bottom=0;right=0;pointerEvents=1;fontSize=16;fontStyle=1" parent="Ubt92ZxgmZUFssLvZX3g-78" vertex="1">
          <mxGeometry width="58" height="58" as="geometry">
            <mxRectangle width="58" height="58" as="alternateBounds" />
          </mxGeometry>
        </mxCell>
        <mxCell id="Ubt92ZxgmZUFssLvZX3g-80" value="" style="shape=partialRectangle;html=1;whiteSpace=wrap;connectable=0;strokeColor=inherit;overflow=hidden;fillColor=none;top=0;left=0;bottom=0;right=0;pointerEvents=1;fontSize=16;fontStyle=1" parent="Ubt92ZxgmZUFssLvZX3g-78" vertex="1">
          <mxGeometry x="58" width="59" height="58" as="geometry">
            <mxRectangle width="59" height="58" as="alternateBounds" />
          </mxGeometry>
        </mxCell>
        <mxCell id="Ubt92ZxgmZUFssLvZX3g-81" value="" style="shape=partialRectangle;html=1;whiteSpace=wrap;connectable=0;strokeColor=inherit;overflow=hidden;fillColor=none;top=0;left=0;bottom=0;right=0;pointerEvents=1;fontSize=16;fontStyle=1" parent="Ubt92ZxgmZUFssLvZX3g-78" vertex="1">
          <mxGeometry x="117" width="58" height="58" as="geometry">
            <mxRectangle width="58" height="58" as="alternateBounds" />
          </mxGeometry>
        </mxCell>
        <mxCell id="Ubt92ZxgmZUFssLvZX3g-82" value="" style="shape=partialRectangle;html=1;whiteSpace=wrap;connectable=0;strokeColor=inherit;overflow=hidden;fillColor=none;top=0;left=0;bottom=0;right=0;pointerEvents=1;fontSize=16;fontStyle=1" parent="Ubt92ZxgmZUFssLvZX3g-78" vertex="1">
          <mxGeometry x="175" width="58" height="58" as="geometry">
            <mxRectangle width="58" height="58" as="alternateBounds" />
          </mxGeometry>
        </mxCell>
        <mxCell id="Ubt92ZxgmZUFssLvZX3g-83" value="" style="shape=partialRectangle;html=1;whiteSpace=wrap;connectable=0;strokeColor=inherit;overflow=hidden;fillColor=none;top=0;left=0;bottom=0;right=0;pointerEvents=1;fontSize=16;fontStyle=1" parent="Ubt92ZxgmZUFssLvZX3g-78" vertex="1">
          <mxGeometry x="233" width="59" height="58" as="geometry">
            <mxRectangle width="59" height="58" as="alternateBounds" />
          </mxGeometry>
        </mxCell>
        <mxCell id="Ubt92ZxgmZUFssLvZX3g-84" value="" style="shape=partialRectangle;html=1;whiteSpace=wrap;connectable=0;strokeColor=inherit;overflow=hidden;fillColor=none;top=0;left=0;bottom=0;right=0;pointerEvents=1;fontSize=16;fontStyle=1" parent="Ubt92ZxgmZUFssLvZX3g-78" vertex="1">
          <mxGeometry x="292" width="57" height="58" as="geometry">
            <mxRectangle width="57" height="58" as="alternateBounds" />
          </mxGeometry>
        </mxCell>
        <mxCell id="Ubt92ZxgmZUFssLvZX3g-85" value="" style="shape=partialRectangle;html=1;whiteSpace=wrap;connectable=0;strokeColor=inherit;overflow=hidden;fillColor=none;top=0;left=0;bottom=0;right=0;pointerEvents=1;fontSize=16;fontStyle=1" parent="Ubt92ZxgmZUFssLvZX3g-78" vertex="1">
          <mxGeometry x="349" width="59" height="58" as="geometry">
            <mxRectangle width="59" height="58" as="alternateBounds" />
          </mxGeometry>
        </mxCell>
        <mxCell id="Ubt92ZxgmZUFssLvZX3g-86" value="" style="shape=partialRectangle;html=1;whiteSpace=wrap;connectable=0;strokeColor=inherit;overflow=hidden;fillColor=none;top=0;left=0;bottom=0;right=0;pointerEvents=1;fontSize=16;fontStyle=1" parent="Ubt92ZxgmZUFssLvZX3g-78" vertex="1">
          <mxGeometry x="408" width="59" height="58" as="geometry">
            <mxRectangle width="59" height="58" as="alternateBounds" />
          </mxGeometry>
        </mxCell>
        <mxCell id="Ubt92ZxgmZUFssLvZX3g-87" value="" style="shape=partialRectangle;html=1;whiteSpace=wrap;connectable=0;strokeColor=inherit;overflow=hidden;fillColor=none;top=0;left=0;bottom=0;right=0;pointerEvents=1;fontSize=16;fontStyle=1" parent="Ubt92ZxgmZUFssLvZX3g-78" vertex="1">
          <mxGeometry x="467" width="58" height="58" as="geometry">
            <mxRectangle width="58" height="58" as="alternateBounds" />
          </mxGeometry>
        </mxCell>
        <mxCell id="Ubt92ZxgmZUFssLvZX3g-88" value="" style="shape=partialRectangle;html=1;whiteSpace=wrap;connectable=0;strokeColor=inherit;overflow=hidden;fillColor=none;top=0;left=0;bottom=0;right=0;pointerEvents=1;fontSize=16;fontStyle=1" parent="Ubt92ZxgmZUFssLvZX3g-78" vertex="1">
          <mxGeometry x="525" width="58" height="58" as="geometry">
            <mxRectangle width="58" height="58" as="alternateBounds" />
          </mxGeometry>
        </mxCell>
        <mxCell id="Ubt92ZxgmZUFssLvZX3g-89" value="" style="shape=partialRectangle;html=1;whiteSpace=wrap;connectable=0;strokeColor=inherit;overflow=hidden;fillColor=none;top=0;left=0;bottom=0;right=0;pointerEvents=1;fontSize=16;fontStyle=1" parent="Ubt92ZxgmZUFssLvZX3g-78" vertex="1">
          <mxGeometry x="583" width="58" height="58" as="geometry">
            <mxRectangle width="58" height="58" as="alternateBounds" />
          </mxGeometry>
        </mxCell>
        <mxCell id="Ubt92ZxgmZUFssLvZX3g-90" value="" style="shape=partialRectangle;html=1;whiteSpace=wrap;connectable=0;strokeColor=inherit;overflow=hidden;fillColor=none;top=0;left=0;bottom=0;right=0;pointerEvents=1;fontSize=16;fontStyle=1" parent="Ubt92ZxgmZUFssLvZX3g-78" vertex="1">
          <mxGeometry x="641" width="59" height="58" as="geometry">
            <mxRectangle width="59" height="58" as="alternateBounds" />
          </mxGeometry>
        </mxCell>
        <mxCell id="Ubt92ZxgmZUFssLvZX3g-91" style="shape=tableRow;horizontal=0;startSize=0;swimlaneHead=0;swimlaneBody=0;strokeColor=inherit;top=0;left=0;bottom=0;right=0;collapsible=0;dropTarget=0;fillColor=none;points=[[0,0.5],[1,0.5]];portConstraint=eastwest;fontSize=16;fontStyle=1" parent="Ubt92ZxgmZUFssLvZX3g-12" vertex="1">
          <mxGeometry y="350" width="700" height="58" as="geometry" />
        </mxCell>
        <mxCell id="Ubt92ZxgmZUFssLvZX3g-92" value="" style="shape=partialRectangle;html=1;whiteSpace=wrap;connectable=0;strokeColor=inherit;overflow=hidden;fillColor=none;top=0;left=0;bottom=0;right=0;pointerEvents=1;fontSize=16;fontStyle=1" parent="Ubt92ZxgmZUFssLvZX3g-91" vertex="1">
          <mxGeometry width="58" height="58" as="geometry">
            <mxRectangle width="58" height="58" as="alternateBounds" />
          </mxGeometry>
        </mxCell>
        <mxCell id="Ubt92ZxgmZUFssLvZX3g-93" value="" style="shape=partialRectangle;html=1;whiteSpace=wrap;connectable=0;strokeColor=inherit;overflow=hidden;fillColor=none;top=0;left=0;bottom=0;right=0;pointerEvents=1;fontSize=16;fontStyle=1" parent="Ubt92ZxgmZUFssLvZX3g-91" vertex="1">
          <mxGeometry x="58" width="59" height="58" as="geometry">
            <mxRectangle width="59" height="58" as="alternateBounds" />
          </mxGeometry>
        </mxCell>
        <mxCell id="Ubt92ZxgmZUFssLvZX3g-94" value="" style="shape=partialRectangle;html=1;whiteSpace=wrap;connectable=0;strokeColor=inherit;overflow=hidden;fillColor=none;top=0;left=0;bottom=0;right=0;pointerEvents=1;fontSize=16;fontStyle=1" parent="Ubt92ZxgmZUFssLvZX3g-91" vertex="1">
          <mxGeometry x="117" width="58" height="58" as="geometry">
            <mxRectangle width="58" height="58" as="alternateBounds" />
          </mxGeometry>
        </mxCell>
        <mxCell id="Ubt92ZxgmZUFssLvZX3g-95" value="" style="shape=partialRectangle;html=1;whiteSpace=wrap;connectable=0;strokeColor=inherit;overflow=hidden;fillColor=none;top=0;left=0;bottom=0;right=0;pointerEvents=1;fontSize=16;fontStyle=1" parent="Ubt92ZxgmZUFssLvZX3g-91" vertex="1">
          <mxGeometry x="175" width="58" height="58" as="geometry">
            <mxRectangle width="58" height="58" as="alternateBounds" />
          </mxGeometry>
        </mxCell>
        <mxCell id="Ubt92ZxgmZUFssLvZX3g-96" value="" style="shape=partialRectangle;html=1;whiteSpace=wrap;connectable=0;strokeColor=inherit;overflow=hidden;fillColor=none;top=0;left=0;bottom=0;right=0;pointerEvents=1;fontSize=16;fontStyle=1" parent="Ubt92ZxgmZUFssLvZX3g-91" vertex="1">
          <mxGeometry x="233" width="59" height="58" as="geometry">
            <mxRectangle width="59" height="58" as="alternateBounds" />
          </mxGeometry>
        </mxCell>
        <mxCell id="Ubt92ZxgmZUFssLvZX3g-97" value="" style="shape=partialRectangle;html=1;whiteSpace=wrap;connectable=0;strokeColor=inherit;overflow=hidden;fillColor=none;top=0;left=0;bottom=0;right=0;pointerEvents=1;fontSize=16;fontStyle=1" parent="Ubt92ZxgmZUFssLvZX3g-91" vertex="1">
          <mxGeometry x="292" width="57" height="58" as="geometry">
            <mxRectangle width="57" height="58" as="alternateBounds" />
          </mxGeometry>
        </mxCell>
        <mxCell id="Ubt92ZxgmZUFssLvZX3g-98" value="" style="shape=partialRectangle;html=1;whiteSpace=wrap;connectable=0;strokeColor=inherit;overflow=hidden;fillColor=none;top=0;left=0;bottom=0;right=0;pointerEvents=1;fontSize=16;fontStyle=1" parent="Ubt92ZxgmZUFssLvZX3g-91" vertex="1">
          <mxGeometry x="349" width="59" height="58" as="geometry">
            <mxRectangle width="59" height="58" as="alternateBounds" />
          </mxGeometry>
        </mxCell>
        <mxCell id="Ubt92ZxgmZUFssLvZX3g-99" value="" style="shape=partialRectangle;html=1;whiteSpace=wrap;connectable=0;strokeColor=inherit;overflow=hidden;fillColor=none;top=0;left=0;bottom=0;right=0;pointerEvents=1;fontSize=16;fontStyle=1" parent="Ubt92ZxgmZUFssLvZX3g-91" vertex="1">
          <mxGeometry x="408" width="59" height="58" as="geometry">
            <mxRectangle width="59" height="58" as="alternateBounds" />
          </mxGeometry>
        </mxCell>
        <mxCell id="Ubt92ZxgmZUFssLvZX3g-100" value="" style="shape=partialRectangle;html=1;whiteSpace=wrap;connectable=0;strokeColor=inherit;overflow=hidden;fillColor=none;top=0;left=0;bottom=0;right=0;pointerEvents=1;fontSize=16;fontStyle=1" parent="Ubt92ZxgmZUFssLvZX3g-91" vertex="1">
          <mxGeometry x="467" width="58" height="58" as="geometry">
            <mxRectangle width="58" height="58" as="alternateBounds" />
          </mxGeometry>
        </mxCell>
        <mxCell id="Ubt92ZxgmZUFssLvZX3g-101" value="" style="shape=partialRectangle;html=1;whiteSpace=wrap;connectable=0;strokeColor=inherit;overflow=hidden;fillColor=none;top=0;left=0;bottom=0;right=0;pointerEvents=1;fontSize=16;fontStyle=1" parent="Ubt92ZxgmZUFssLvZX3g-91" vertex="1">
          <mxGeometry x="525" width="58" height="58" as="geometry">
            <mxRectangle width="58" height="58" as="alternateBounds" />
          </mxGeometry>
        </mxCell>
        <mxCell id="Ubt92ZxgmZUFssLvZX3g-102" value="" style="shape=partialRectangle;html=1;whiteSpace=wrap;connectable=0;strokeColor=inherit;overflow=hidden;fillColor=none;top=0;left=0;bottom=0;right=0;pointerEvents=1;fontSize=16;fontStyle=1" parent="Ubt92ZxgmZUFssLvZX3g-91" vertex="1">
          <mxGeometry x="583" width="58" height="58" as="geometry">
            <mxRectangle width="58" height="58" as="alternateBounds" />
          </mxGeometry>
        </mxCell>
        <mxCell id="Ubt92ZxgmZUFssLvZX3g-103" value="" style="shape=partialRectangle;html=1;whiteSpace=wrap;connectable=0;strokeColor=inherit;overflow=hidden;fillColor=none;top=0;left=0;bottom=0;right=0;pointerEvents=1;fontSize=16;fontStyle=1" parent="Ubt92ZxgmZUFssLvZX3g-91" vertex="1">
          <mxGeometry x="641" width="59" height="58" as="geometry">
            <mxRectangle width="59" height="58" as="alternateBounds" />
          </mxGeometry>
        </mxCell>
        <mxCell id="Ubt92ZxgmZUFssLvZX3g-104" style="shape=tableRow;horizontal=0;startSize=0;swimlaneHead=0;swimlaneBody=0;strokeColor=inherit;top=0;left=0;bottom=0;right=0;collapsible=0;dropTarget=0;fillColor=none;points=[[0,0.5],[1,0.5]];portConstraint=eastwest;fontSize=16;fontStyle=1" parent="Ubt92ZxgmZUFssLvZX3g-12" vertex="1">
          <mxGeometry y="408" width="700" height="59" as="geometry" />
        </mxCell>
        <mxCell id="Ubt92ZxgmZUFssLvZX3g-105" value="" style="shape=partialRectangle;html=1;whiteSpace=wrap;connectable=0;strokeColor=inherit;overflow=hidden;fillColor=none;top=0;left=0;bottom=0;right=0;pointerEvents=1;fontSize=16;fontStyle=1" parent="Ubt92ZxgmZUFssLvZX3g-104" vertex="1">
          <mxGeometry width="58" height="59" as="geometry">
            <mxRectangle width="58" height="59" as="alternateBounds" />
          </mxGeometry>
        </mxCell>
        <mxCell id="Ubt92ZxgmZUFssLvZX3g-106" value="" style="shape=partialRectangle;html=1;whiteSpace=wrap;connectable=0;strokeColor=inherit;overflow=hidden;fillColor=none;top=0;left=0;bottom=0;right=0;pointerEvents=1;fontSize=16;fontStyle=1" parent="Ubt92ZxgmZUFssLvZX3g-104" vertex="1">
          <mxGeometry x="58" width="59" height="59" as="geometry">
            <mxRectangle width="59" height="59" as="alternateBounds" />
          </mxGeometry>
        </mxCell>
        <mxCell id="Ubt92ZxgmZUFssLvZX3g-107" value="" style="shape=partialRectangle;html=1;whiteSpace=wrap;connectable=0;strokeColor=inherit;overflow=hidden;fillColor=none;top=0;left=0;bottom=0;right=0;pointerEvents=1;fontSize=16;fontStyle=1" parent="Ubt92ZxgmZUFssLvZX3g-104" vertex="1">
          <mxGeometry x="117" width="58" height="59" as="geometry">
            <mxRectangle width="58" height="59" as="alternateBounds" />
          </mxGeometry>
        </mxCell>
        <mxCell id="Ubt92ZxgmZUFssLvZX3g-108" value="" style="shape=partialRectangle;html=1;whiteSpace=wrap;connectable=0;strokeColor=inherit;overflow=hidden;fillColor=none;top=0;left=0;bottom=0;right=0;pointerEvents=1;fontSize=16;fontStyle=1" parent="Ubt92ZxgmZUFssLvZX3g-104" vertex="1">
          <mxGeometry x="175" width="58" height="59" as="geometry">
            <mxRectangle width="58" height="59" as="alternateBounds" />
          </mxGeometry>
        </mxCell>
        <mxCell id="Ubt92ZxgmZUFssLvZX3g-109" value="" style="shape=partialRectangle;html=1;whiteSpace=wrap;connectable=0;strokeColor=inherit;overflow=hidden;fillColor=none;top=0;left=0;bottom=0;right=0;pointerEvents=1;fontSize=16;fontStyle=1" parent="Ubt92ZxgmZUFssLvZX3g-104" vertex="1">
          <mxGeometry x="233" width="59" height="59" as="geometry">
            <mxRectangle width="59" height="59" as="alternateBounds" />
          </mxGeometry>
        </mxCell>
        <mxCell id="Ubt92ZxgmZUFssLvZX3g-110" value="" style="shape=partialRectangle;html=1;whiteSpace=wrap;connectable=0;strokeColor=inherit;overflow=hidden;fillColor=none;top=0;left=0;bottom=0;right=0;pointerEvents=1;fontSize=16;fontStyle=1" parent="Ubt92ZxgmZUFssLvZX3g-104" vertex="1">
          <mxGeometry x="292" width="57" height="59" as="geometry">
            <mxRectangle width="57" height="59" as="alternateBounds" />
          </mxGeometry>
        </mxCell>
        <mxCell id="Ubt92ZxgmZUFssLvZX3g-111" value="" style="shape=partialRectangle;html=1;whiteSpace=wrap;connectable=0;strokeColor=inherit;overflow=hidden;fillColor=none;top=0;left=0;bottom=0;right=0;pointerEvents=1;fontSize=16;fontStyle=1" parent="Ubt92ZxgmZUFssLvZX3g-104" vertex="1">
          <mxGeometry x="349" width="59" height="59" as="geometry">
            <mxRectangle width="59" height="59" as="alternateBounds" />
          </mxGeometry>
        </mxCell>
        <mxCell id="Ubt92ZxgmZUFssLvZX3g-112" value="" style="shape=partialRectangle;html=1;whiteSpace=wrap;connectable=0;strokeColor=inherit;overflow=hidden;fillColor=none;top=0;left=0;bottom=0;right=0;pointerEvents=1;fontSize=16;fontStyle=1" parent="Ubt92ZxgmZUFssLvZX3g-104" vertex="1">
          <mxGeometry x="408" width="59" height="59" as="geometry">
            <mxRectangle width="59" height="59" as="alternateBounds" />
          </mxGeometry>
        </mxCell>
        <mxCell id="Ubt92ZxgmZUFssLvZX3g-113" value="" style="shape=partialRectangle;html=1;whiteSpace=wrap;connectable=0;strokeColor=inherit;overflow=hidden;fillColor=none;top=0;left=0;bottom=0;right=0;pointerEvents=1;fontSize=16;fontStyle=1" parent="Ubt92ZxgmZUFssLvZX3g-104" vertex="1">
          <mxGeometry x="467" width="58" height="59" as="geometry">
            <mxRectangle width="58" height="59" as="alternateBounds" />
          </mxGeometry>
        </mxCell>
        <mxCell id="Ubt92ZxgmZUFssLvZX3g-114" value="" style="shape=partialRectangle;html=1;whiteSpace=wrap;connectable=0;strokeColor=inherit;overflow=hidden;fillColor=none;top=0;left=0;bottom=0;right=0;pointerEvents=1;fontSize=16;fontStyle=1" parent="Ubt92ZxgmZUFssLvZX3g-104" vertex="1">
          <mxGeometry x="525" width="58" height="59" as="geometry">
            <mxRectangle width="58" height="59" as="alternateBounds" />
          </mxGeometry>
        </mxCell>
        <mxCell id="Ubt92ZxgmZUFssLvZX3g-115" value="" style="shape=partialRectangle;html=1;whiteSpace=wrap;connectable=0;strokeColor=inherit;overflow=hidden;fillColor=none;top=0;left=0;bottom=0;right=0;pointerEvents=1;fontSize=16;fontStyle=1" parent="Ubt92ZxgmZUFssLvZX3g-104" vertex="1">
          <mxGeometry x="583" width="58" height="59" as="geometry">
            <mxRectangle width="58" height="59" as="alternateBounds" />
          </mxGeometry>
        </mxCell>
        <mxCell id="Ubt92ZxgmZUFssLvZX3g-116" value="" style="shape=partialRectangle;html=1;whiteSpace=wrap;connectable=0;strokeColor=inherit;overflow=hidden;fillColor=none;top=0;left=0;bottom=0;right=0;pointerEvents=1;fontSize=16;fontStyle=1" parent="Ubt92ZxgmZUFssLvZX3g-104" vertex="1">
          <mxGeometry x="641" width="59" height="59" as="geometry">
            <mxRectangle width="59" height="59" as="alternateBounds" />
          </mxGeometry>
        </mxCell>
        <mxCell id="Ubt92ZxgmZUFssLvZX3g-117" style="shape=tableRow;horizontal=1;startSize=0;swimlaneHead=0;swimlaneBody=0;strokeColor=inherit;top=0;left=0;bottom=0;right=0;collapsible=0;dropTarget=0;fillColor=none;points=[[0,0.5],[1,0.5]];portConstraint=eastwest;fontSize=16;fontStyle=1" parent="Ubt92ZxgmZUFssLvZX3g-12" vertex="1">
          <mxGeometry y="467" width="700" height="58" as="geometry" />
        </mxCell>
        <mxCell id="Ubt92ZxgmZUFssLvZX3g-118" value="..." style="shape=partialRectangle;html=1;whiteSpace=wrap;connectable=0;strokeColor=inherit;overflow=hidden;fillColor=none;top=0;left=0;bottom=0;right=0;pointerEvents=1;fontSize=16;fontStyle=1;horizontal=0;verticalAlign=top;" parent="Ubt92ZxgmZUFssLvZX3g-117" vertex="1">
          <mxGeometry width="58" height="58" as="geometry">
            <mxRectangle width="58" height="58" as="alternateBounds" />
          </mxGeometry>
        </mxCell>
        <mxCell id="Ubt92ZxgmZUFssLvZX3g-119" value="" style="shape=partialRectangle;html=1;whiteSpace=wrap;connectable=0;strokeColor=inherit;overflow=hidden;fillColor=none;top=0;left=0;bottom=0;right=0;pointerEvents=1;fontSize=16;fontStyle=1" parent="Ubt92ZxgmZUFssLvZX3g-117" vertex="1">
          <mxGeometry x="58" width="59" height="58" as="geometry">
            <mxRectangle width="59" height="58" as="alternateBounds" />
          </mxGeometry>
        </mxCell>
        <mxCell id="Ubt92ZxgmZUFssLvZX3g-120" value="" style="shape=partialRectangle;html=1;whiteSpace=wrap;connectable=0;strokeColor=inherit;overflow=hidden;fillColor=none;top=0;left=0;bottom=0;right=0;pointerEvents=1;fontSize=16;fontStyle=1" parent="Ubt92ZxgmZUFssLvZX3g-117" vertex="1">
          <mxGeometry x="117" width="58" height="58" as="geometry">
            <mxRectangle width="58" height="58" as="alternateBounds" />
          </mxGeometry>
        </mxCell>
        <mxCell id="Ubt92ZxgmZUFssLvZX3g-121" value="" style="shape=partialRectangle;html=1;whiteSpace=wrap;connectable=0;strokeColor=inherit;overflow=hidden;fillColor=none;top=0;left=0;bottom=0;right=0;pointerEvents=1;fontSize=16;fontStyle=1" parent="Ubt92ZxgmZUFssLvZX3g-117" vertex="1">
          <mxGeometry x="175" width="58" height="58" as="geometry">
            <mxRectangle width="58" height="58" as="alternateBounds" />
          </mxGeometry>
        </mxCell>
        <mxCell id="Ubt92ZxgmZUFssLvZX3g-122" value="" style="shape=partialRectangle;html=1;whiteSpace=wrap;connectable=0;strokeColor=inherit;overflow=hidden;fillColor=none;top=0;left=0;bottom=0;right=0;pointerEvents=1;fontSize=16;fontStyle=1" parent="Ubt92ZxgmZUFssLvZX3g-117" vertex="1">
          <mxGeometry x="233" width="59" height="58" as="geometry">
            <mxRectangle width="59" height="58" as="alternateBounds" />
          </mxGeometry>
        </mxCell>
        <mxCell id="Ubt92ZxgmZUFssLvZX3g-123" value="" style="shape=partialRectangle;html=1;whiteSpace=wrap;connectable=0;strokeColor=inherit;overflow=hidden;fillColor=none;top=0;left=0;bottom=0;right=0;pointerEvents=1;fontSize=16;fontStyle=1" parent="Ubt92ZxgmZUFssLvZX3g-117" vertex="1">
          <mxGeometry x="292" width="57" height="58" as="geometry">
            <mxRectangle width="57" height="58" as="alternateBounds" />
          </mxGeometry>
        </mxCell>
        <mxCell id="Ubt92ZxgmZUFssLvZX3g-124" value="" style="shape=partialRectangle;html=1;whiteSpace=wrap;connectable=0;strokeColor=inherit;overflow=hidden;fillColor=none;top=0;left=0;bottom=0;right=0;pointerEvents=1;fontSize=16;fontStyle=1" parent="Ubt92ZxgmZUFssLvZX3g-117" vertex="1">
          <mxGeometry x="349" width="59" height="58" as="geometry">
            <mxRectangle width="59" height="58" as="alternateBounds" />
          </mxGeometry>
        </mxCell>
        <mxCell id="Ubt92ZxgmZUFssLvZX3g-125" value="" style="shape=partialRectangle;html=1;whiteSpace=wrap;connectable=0;strokeColor=inherit;overflow=hidden;fillColor=none;top=0;left=0;bottom=0;right=0;pointerEvents=1;fontSize=16;fontStyle=1" parent="Ubt92ZxgmZUFssLvZX3g-117" vertex="1">
          <mxGeometry x="408" width="59" height="58" as="geometry">
            <mxRectangle width="59" height="58" as="alternateBounds" />
          </mxGeometry>
        </mxCell>
        <mxCell id="Ubt92ZxgmZUFssLvZX3g-126" value="" style="shape=partialRectangle;html=1;whiteSpace=wrap;connectable=0;strokeColor=inherit;overflow=hidden;fillColor=none;top=0;left=0;bottom=0;right=0;pointerEvents=1;fontSize=16;fontStyle=1" parent="Ubt92ZxgmZUFssLvZX3g-117" vertex="1">
          <mxGeometry x="467" width="58" height="58" as="geometry">
            <mxRectangle width="58" height="58" as="alternateBounds" />
          </mxGeometry>
        </mxCell>
        <mxCell id="Ubt92ZxgmZUFssLvZX3g-127" value="" style="shape=partialRectangle;html=1;whiteSpace=wrap;connectable=0;strokeColor=inherit;overflow=hidden;fillColor=none;top=0;left=0;bottom=0;right=0;pointerEvents=1;fontSize=16;fontStyle=1" parent="Ubt92ZxgmZUFssLvZX3g-117" vertex="1">
          <mxGeometry x="525" width="58" height="58" as="geometry">
            <mxRectangle width="58" height="58" as="alternateBounds" />
          </mxGeometry>
        </mxCell>
        <mxCell id="Ubt92ZxgmZUFssLvZX3g-128" value="" style="shape=partialRectangle;html=1;whiteSpace=wrap;connectable=0;strokeColor=inherit;overflow=hidden;fillColor=none;top=0;left=0;bottom=0;right=0;pointerEvents=1;fontSize=16;fontStyle=1" parent="Ubt92ZxgmZUFssLvZX3g-117" vertex="1">
          <mxGeometry x="583" width="58" height="58" as="geometry">
            <mxRectangle width="58" height="58" as="alternateBounds" />
          </mxGeometry>
        </mxCell>
        <mxCell id="Ubt92ZxgmZUFssLvZX3g-129" value="" style="shape=partialRectangle;html=1;whiteSpace=wrap;connectable=0;strokeColor=#82b366;overflow=hidden;fillColor=#d5e8d4;top=0;left=0;bottom=0;right=0;pointerEvents=1;fontSize=16;fontStyle=1" parent="Ubt92ZxgmZUFssLvZX3g-117" vertex="1">
          <mxGeometry x="641" width="59" height="58" as="geometry">
            <mxRectangle width="59" height="58" as="alternateBounds" />
          </mxGeometry>
        </mxCell>
        <mxCell id="Ubt92ZxgmZUFssLvZX3g-130" value="" style="shape=tableRow;horizontal=0;startSize=0;swimlaneHead=0;swimlaneBody=0;strokeColor=inherit;top=0;left=0;bottom=0;right=0;collapsible=0;dropTarget=0;fillColor=none;points=[[0,0.5],[1,0.5]];portConstraint=eastwest;fontSize=16;fontStyle=1" parent="Ubt92ZxgmZUFssLvZX3g-12" vertex="1">
          <mxGeometry y="525" width="700" height="58" as="geometry" />
        </mxCell>
        <mxCell id="Ubt92ZxgmZUFssLvZX3g-131" value="(1,3)" style="shape=partialRectangle;html=1;whiteSpace=wrap;connectable=0;strokeColor=#82b366;overflow=hidden;fillColor=none;top=0;left=0;bottom=0;right=0;pointerEvents=1;fontSize=16;fontStyle=1" parent="Ubt92ZxgmZUFssLvZX3g-130" vertex="1">
          <mxGeometry width="58" height="58" as="geometry">
            <mxRectangle width="58" height="58" as="alternateBounds" />
          </mxGeometry>
        </mxCell>
        <mxCell id="Ubt92ZxgmZUFssLvZX3g-132" value="" style="shape=partialRectangle;html=1;whiteSpace=wrap;connectable=0;strokeColor=inherit;overflow=hidden;fillColor=none;top=0;left=0;bottom=0;right=0;pointerEvents=1;fontSize=16;fontStyle=1" parent="Ubt92ZxgmZUFssLvZX3g-130" vertex="1">
          <mxGeometry x="58" width="59" height="58" as="geometry">
            <mxRectangle width="59" height="58" as="alternateBounds" />
          </mxGeometry>
        </mxCell>
        <mxCell id="Ubt92ZxgmZUFssLvZX3g-133" value="" style="shape=partialRectangle;html=1;whiteSpace=wrap;connectable=0;strokeColor=inherit;overflow=hidden;fillColor=none;top=0;left=0;bottom=0;right=0;pointerEvents=1;fontSize=16;fontStyle=1" parent="Ubt92ZxgmZUFssLvZX3g-130" vertex="1">
          <mxGeometry x="117" width="58" height="58" as="geometry">
            <mxRectangle width="58" height="58" as="alternateBounds" />
          </mxGeometry>
        </mxCell>
        <mxCell id="Ubt92ZxgmZUFssLvZX3g-134" value="" style="shape=partialRectangle;html=1;whiteSpace=wrap;connectable=0;strokeColor=inherit;overflow=hidden;fillColor=none;top=0;left=0;bottom=0;right=0;pointerEvents=1;fontSize=16;fontStyle=1" parent="Ubt92ZxgmZUFssLvZX3g-130" vertex="1">
          <mxGeometry x="175" width="58" height="58" as="geometry">
            <mxRectangle width="58" height="58" as="alternateBounds" />
          </mxGeometry>
        </mxCell>
        <mxCell id="Ubt92ZxgmZUFssLvZX3g-135" value="" style="shape=partialRectangle;html=1;whiteSpace=wrap;connectable=0;strokeColor=inherit;overflow=hidden;fillColor=none;top=0;left=0;bottom=0;right=0;pointerEvents=1;fontSize=16;fontStyle=1" parent="Ubt92ZxgmZUFssLvZX3g-130" vertex="1">
          <mxGeometry x="233" width="59" height="58" as="geometry">
            <mxRectangle width="59" height="58" as="alternateBounds" />
          </mxGeometry>
        </mxCell>
        <mxCell id="Ubt92ZxgmZUFssLvZX3g-136" value="" style="shape=partialRectangle;html=1;whiteSpace=wrap;connectable=0;strokeColor=inherit;overflow=hidden;fillColor=none;top=0;left=0;bottom=0;right=0;pointerEvents=1;fontSize=16;fontStyle=1" parent="Ubt92ZxgmZUFssLvZX3g-130" vertex="1">
          <mxGeometry x="292" width="57" height="58" as="geometry">
            <mxRectangle width="57" height="58" as="alternateBounds" />
          </mxGeometry>
        </mxCell>
        <mxCell id="Ubt92ZxgmZUFssLvZX3g-137" value="" style="shape=partialRectangle;html=1;whiteSpace=wrap;connectable=0;strokeColor=inherit;overflow=hidden;fillColor=none;top=0;left=0;bottom=0;right=0;pointerEvents=1;fontSize=16;fontStyle=1" parent="Ubt92ZxgmZUFssLvZX3g-130" vertex="1">
          <mxGeometry x="349" width="59" height="58" as="geometry">
            <mxRectangle width="59" height="58" as="alternateBounds" />
          </mxGeometry>
        </mxCell>
        <mxCell id="Ubt92ZxgmZUFssLvZX3g-138" value="" style="shape=partialRectangle;html=1;whiteSpace=wrap;connectable=0;strokeColor=inherit;overflow=hidden;fillColor=none;top=0;left=0;bottom=0;right=0;pointerEvents=1;fontSize=16;fontStyle=1" parent="Ubt92ZxgmZUFssLvZX3g-130" vertex="1">
          <mxGeometry x="408" width="59" height="58" as="geometry">
            <mxRectangle width="59" height="58" as="alternateBounds" />
          </mxGeometry>
        </mxCell>
        <mxCell id="Ubt92ZxgmZUFssLvZX3g-139" value="" style="shape=partialRectangle;html=1;whiteSpace=wrap;connectable=0;strokeColor=inherit;overflow=hidden;fillColor=none;top=0;left=0;bottom=0;right=0;pointerEvents=1;fontSize=16;fontStyle=1" parent="Ubt92ZxgmZUFssLvZX3g-130" vertex="1">
          <mxGeometry x="467" width="58" height="58" as="geometry">
            <mxRectangle width="58" height="58" as="alternateBounds" />
          </mxGeometry>
        </mxCell>
        <mxCell id="Ubt92ZxgmZUFssLvZX3g-140" value="" style="shape=partialRectangle;html=1;whiteSpace=wrap;connectable=0;strokeColor=inherit;overflow=hidden;fillColor=none;top=0;left=0;bottom=0;right=0;pointerEvents=1;fontSize=16;fontStyle=1" parent="Ubt92ZxgmZUFssLvZX3g-130" vertex="1">
          <mxGeometry x="525" width="58" height="58" as="geometry">
            <mxRectangle width="58" height="58" as="alternateBounds" />
          </mxGeometry>
        </mxCell>
        <mxCell id="Ubt92ZxgmZUFssLvZX3g-141" value="" style="shape=partialRectangle;html=1;whiteSpace=wrap;connectable=0;strokeColor=inherit;overflow=hidden;fillColor=none;top=0;left=0;bottom=0;right=0;pointerEvents=1;fontSize=16;fontStyle=1" parent="Ubt92ZxgmZUFssLvZX3g-130" vertex="1">
          <mxGeometry x="583" width="58" height="58" as="geometry">
            <mxRectangle width="58" height="58" as="alternateBounds" />
          </mxGeometry>
        </mxCell>
        <mxCell id="Ubt92ZxgmZUFssLvZX3g-142" value="" style="shape=partialRectangle;html=1;whiteSpace=wrap;connectable=0;strokeColor=inherit;overflow=hidden;fillColor=none;top=0;left=0;bottom=0;right=0;pointerEvents=1;fontSize=16;fontStyle=1" parent="Ubt92ZxgmZUFssLvZX3g-130" vertex="1">
          <mxGeometry x="641" width="59" height="58" as="geometry">
            <mxRectangle width="59" height="58" as="alternateBounds" />
          </mxGeometry>
        </mxCell>
        <mxCell id="Ubt92ZxgmZUFssLvZX3g-143" value="" style="shape=tableRow;horizontal=0;startSize=0;swimlaneHead=0;swimlaneBody=0;strokeColor=inherit;top=0;left=0;bottom=0;right=0;collapsible=0;dropTarget=0;fillColor=none;points=[[0,0.5],[1,0.5]];portConstraint=eastwest;fontSize=16;fontStyle=1" parent="Ubt92ZxgmZUFssLvZX3g-12" vertex="1">
          <mxGeometry y="583" width="700" height="59" as="geometry" />
        </mxCell>
        <mxCell id="Ubt92ZxgmZUFssLvZX3g-144" value="(1,2)" style="shape=partialRectangle;html=1;whiteSpace=wrap;connectable=0;strokeColor=inherit;overflow=hidden;fillColor=none;top=0;left=0;bottom=0;right=0;pointerEvents=1;fontSize=16;fontStyle=1" parent="Ubt92ZxgmZUFssLvZX3g-143" vertex="1">
          <mxGeometry width="58" height="59" as="geometry">
            <mxRectangle width="58" height="59" as="alternateBounds" />
          </mxGeometry>
        </mxCell>
        <mxCell id="Ubt92ZxgmZUFssLvZX3g-145" value="(2,2)" style="shape=partialRectangle;html=1;whiteSpace=wrap;connectable=0;strokeColor=inherit;overflow=hidden;fillColor=none;top=0;left=0;bottom=0;right=0;pointerEvents=1;fontSize=16;fontStyle=1" parent="Ubt92ZxgmZUFssLvZX3g-143" vertex="1">
          <mxGeometry x="58" width="59" height="59" as="geometry">
            <mxRectangle width="59" height="59" as="alternateBounds" />
          </mxGeometry>
        </mxCell>
        <mxCell id="Ubt92ZxgmZUFssLvZX3g-146" value="" style="shape=partialRectangle;html=1;whiteSpace=wrap;connectable=0;strokeColor=inherit;overflow=hidden;fillColor=none;top=0;left=0;bottom=0;right=0;pointerEvents=1;fontSize=16;fontStyle=1" parent="Ubt92ZxgmZUFssLvZX3g-143" vertex="1">
          <mxGeometry x="117" width="58" height="59" as="geometry">
            <mxRectangle width="58" height="59" as="alternateBounds" />
          </mxGeometry>
        </mxCell>
        <mxCell id="Ubt92ZxgmZUFssLvZX3g-147" value="" style="shape=partialRectangle;html=1;whiteSpace=wrap;connectable=0;strokeColor=inherit;overflow=hidden;fillColor=none;top=0;left=0;bottom=0;right=0;pointerEvents=1;fontSize=16;fontStyle=1" parent="Ubt92ZxgmZUFssLvZX3g-143" vertex="1">
          <mxGeometry x="175" width="58" height="59" as="geometry">
            <mxRectangle width="58" height="59" as="alternateBounds" />
          </mxGeometry>
        </mxCell>
        <mxCell id="Ubt92ZxgmZUFssLvZX3g-148" value="" style="shape=partialRectangle;html=1;whiteSpace=wrap;connectable=0;strokeColor=inherit;overflow=hidden;fillColor=none;top=0;left=0;bottom=0;right=0;pointerEvents=1;fontSize=16;fontStyle=1" parent="Ubt92ZxgmZUFssLvZX3g-143" vertex="1">
          <mxGeometry x="233" width="59" height="59" as="geometry">
            <mxRectangle width="59" height="59" as="alternateBounds" />
          </mxGeometry>
        </mxCell>
        <mxCell id="Ubt92ZxgmZUFssLvZX3g-149" value="" style="shape=partialRectangle;html=1;whiteSpace=wrap;connectable=0;strokeColor=inherit;overflow=hidden;fillColor=none;top=0;left=0;bottom=0;right=0;pointerEvents=1;fontSize=16;fontStyle=1" parent="Ubt92ZxgmZUFssLvZX3g-143" vertex="1">
          <mxGeometry x="292" width="57" height="59" as="geometry">
            <mxRectangle width="57" height="59" as="alternateBounds" />
          </mxGeometry>
        </mxCell>
        <mxCell id="Ubt92ZxgmZUFssLvZX3g-150" value="" style="shape=partialRectangle;html=1;whiteSpace=wrap;connectable=0;strokeColor=inherit;overflow=hidden;fillColor=none;top=0;left=0;bottom=0;right=0;pointerEvents=1;fontSize=16;fontStyle=1" parent="Ubt92ZxgmZUFssLvZX3g-143" vertex="1">
          <mxGeometry x="349" width="59" height="59" as="geometry">
            <mxRectangle width="59" height="59" as="alternateBounds" />
          </mxGeometry>
        </mxCell>
        <mxCell id="Ubt92ZxgmZUFssLvZX3g-151" value="" style="shape=partialRectangle;html=1;whiteSpace=wrap;connectable=0;strokeColor=inherit;overflow=hidden;fillColor=none;top=0;left=0;bottom=0;right=0;pointerEvents=1;fontSize=16;fontStyle=1" parent="Ubt92ZxgmZUFssLvZX3g-143" vertex="1">
          <mxGeometry x="408" width="59" height="59" as="geometry">
            <mxRectangle width="59" height="59" as="alternateBounds" />
          </mxGeometry>
        </mxCell>
        <mxCell id="Ubt92ZxgmZUFssLvZX3g-152" value="" style="shape=partialRectangle;html=1;whiteSpace=wrap;connectable=0;strokeColor=inherit;overflow=hidden;fillColor=none;top=0;left=0;bottom=0;right=0;pointerEvents=1;fontSize=16;fontStyle=1" parent="Ubt92ZxgmZUFssLvZX3g-143" vertex="1">
          <mxGeometry x="467" width="58" height="59" as="geometry">
            <mxRectangle width="58" height="59" as="alternateBounds" />
          </mxGeometry>
        </mxCell>
        <mxCell id="Ubt92ZxgmZUFssLvZX3g-153" value="" style="shape=partialRectangle;html=1;whiteSpace=wrap;connectable=0;strokeColor=inherit;overflow=hidden;fillColor=none;top=0;left=0;bottom=0;right=0;pointerEvents=1;fontSize=16;fontStyle=1" parent="Ubt92ZxgmZUFssLvZX3g-143" vertex="1">
          <mxGeometry x="525" width="58" height="59" as="geometry">
            <mxRectangle width="58" height="59" as="alternateBounds" />
          </mxGeometry>
        </mxCell>
        <mxCell id="Ubt92ZxgmZUFssLvZX3g-154" value="" style="shape=partialRectangle;html=1;whiteSpace=wrap;connectable=0;strokeColor=inherit;overflow=hidden;fillColor=none;top=0;left=0;bottom=0;right=0;pointerEvents=1;fontSize=16;fontStyle=1" parent="Ubt92ZxgmZUFssLvZX3g-143" vertex="1">
          <mxGeometry x="583" width="58" height="59" as="geometry">
            <mxRectangle width="58" height="59" as="alternateBounds" />
          </mxGeometry>
        </mxCell>
        <mxCell id="Ubt92ZxgmZUFssLvZX3g-155" value="" style="shape=partialRectangle;html=1;whiteSpace=wrap;connectable=0;strokeColor=inherit;overflow=hidden;fillColor=none;top=0;left=0;bottom=0;right=0;pointerEvents=1;fontSize=16;fontStyle=1" parent="Ubt92ZxgmZUFssLvZX3g-143" vertex="1">
          <mxGeometry x="641" width="59" height="59" as="geometry">
            <mxRectangle width="59" height="59" as="alternateBounds" />
          </mxGeometry>
        </mxCell>
        <mxCell id="Ubt92ZxgmZUFssLvZX3g-156" value="" style="shape=tableRow;horizontal=0;startSize=0;swimlaneHead=0;swimlaneBody=0;strokeColor=inherit;top=0;left=0;bottom=0;right=0;collapsible=0;dropTarget=0;fillColor=none;points=[[0,0.5],[1,0.5]];portConstraint=eastwest;fontSize=16;fontStyle=1" parent="Ubt92ZxgmZUFssLvZX3g-12" vertex="1">
          <mxGeometry y="642" width="700" height="58" as="geometry" />
        </mxCell>
        <mxCell id="Ubt92ZxgmZUFssLvZX3g-157" value="(1,1)" style="shape=partialRectangle;html=1;whiteSpace=wrap;connectable=0;strokeColor=inherit;overflow=hidden;fillColor=none;top=0;left=0;bottom=0;right=0;pointerEvents=1;fontSize=16;fontStyle=1" parent="Ubt92ZxgmZUFssLvZX3g-156" vertex="1">
          <mxGeometry width="58" height="58" as="geometry">
            <mxRectangle width="58" height="58" as="alternateBounds" />
          </mxGeometry>
        </mxCell>
        <mxCell id="Ubt92ZxgmZUFssLvZX3g-158" value="(2,1)" style="shape=partialRectangle;html=1;whiteSpace=wrap;connectable=0;strokeColor=inherit;overflow=hidden;fillColor=none;top=0;left=0;bottom=0;right=0;pointerEvents=1;fontSize=16;fontStyle=1" parent="Ubt92ZxgmZUFssLvZX3g-156" vertex="1">
          <mxGeometry x="58" width="59" height="58" as="geometry">
            <mxRectangle width="59" height="58" as="alternateBounds" />
          </mxGeometry>
        </mxCell>
        <mxCell id="Ubt92ZxgmZUFssLvZX3g-159" value="(3,1)" style="shape=partialRectangle;html=1;whiteSpace=wrap;connectable=0;strokeColor=inherit;overflow=hidden;fillColor=none;top=0;left=0;bottom=0;right=0;pointerEvents=1;fontSize=16;fontStyle=1" parent="Ubt92ZxgmZUFssLvZX3g-156" vertex="1">
          <mxGeometry x="117" width="58" height="58" as="geometry">
            <mxRectangle width="58" height="58" as="alternateBounds" />
          </mxGeometry>
        </mxCell>
        <mxCell id="Ubt92ZxgmZUFssLvZX3g-160" value="..." style="shape=partialRectangle;html=1;whiteSpace=wrap;connectable=0;strokeColor=inherit;overflow=hidden;fillColor=none;top=0;left=0;bottom=0;right=0;pointerEvents=1;fontSize=16;fontStyle=1" parent="Ubt92ZxgmZUFssLvZX3g-156" vertex="1">
          <mxGeometry x="175" width="58" height="58" as="geometry">
            <mxRectangle width="58" height="58" as="alternateBounds" />
          </mxGeometry>
        </mxCell>
        <mxCell id="Ubt92ZxgmZUFssLvZX3g-161" value="" style="shape=partialRectangle;html=1;whiteSpace=wrap;connectable=0;strokeColor=inherit;overflow=hidden;fillColor=none;top=0;left=0;bottom=0;right=0;pointerEvents=1;fontSize=16;fontStyle=1" parent="Ubt92ZxgmZUFssLvZX3g-156" vertex="1">
          <mxGeometry x="233" width="59" height="58" as="geometry">
            <mxRectangle width="59" height="58" as="alternateBounds" />
          </mxGeometry>
        </mxCell>
        <mxCell id="Ubt92ZxgmZUFssLvZX3g-162" value="" style="shape=partialRectangle;html=1;whiteSpace=wrap;connectable=0;strokeColor=inherit;overflow=hidden;fillColor=none;top=0;left=0;bottom=0;right=0;pointerEvents=1;fontSize=16;fontStyle=1" parent="Ubt92ZxgmZUFssLvZX3g-156" vertex="1">
          <mxGeometry x="292" width="57" height="58" as="geometry">
            <mxRectangle width="57" height="58" as="alternateBounds" />
          </mxGeometry>
        </mxCell>
        <mxCell id="Ubt92ZxgmZUFssLvZX3g-163" value="" style="shape=partialRectangle;html=1;whiteSpace=wrap;connectable=0;strokeColor=inherit;overflow=hidden;fillColor=none;top=0;left=0;bottom=0;right=0;pointerEvents=1;fontSize=16;fontStyle=1" parent="Ubt92ZxgmZUFssLvZX3g-156" vertex="1">
          <mxGeometry x="349" width="59" height="58" as="geometry">
            <mxRectangle width="59" height="58" as="alternateBounds" />
          </mxGeometry>
        </mxCell>
        <mxCell id="Ubt92ZxgmZUFssLvZX3g-164" value="" style="shape=partialRectangle;html=1;whiteSpace=wrap;connectable=0;strokeColor=inherit;overflow=hidden;fillColor=none;top=0;left=0;bottom=0;right=0;pointerEvents=1;fontSize=16;fontStyle=1" parent="Ubt92ZxgmZUFssLvZX3g-156" vertex="1">
          <mxGeometry x="408" width="59" height="58" as="geometry">
            <mxRectangle width="59" height="58" as="alternateBounds" />
          </mxGeometry>
        </mxCell>
        <mxCell id="Ubt92ZxgmZUFssLvZX3g-165" value="" style="shape=partialRectangle;html=1;whiteSpace=wrap;connectable=0;strokeColor=inherit;overflow=hidden;fillColor=none;top=0;left=0;bottom=0;right=0;pointerEvents=1;fontSize=16;fontStyle=1" parent="Ubt92ZxgmZUFssLvZX3g-156" vertex="1">
          <mxGeometry x="467" width="58" height="58" as="geometry">
            <mxRectangle width="58" height="58" as="alternateBounds" />
          </mxGeometry>
        </mxCell>
        <mxCell id="Ubt92ZxgmZUFssLvZX3g-166" value="" style="shape=partialRectangle;html=1;whiteSpace=wrap;connectable=0;strokeColor=inherit;overflow=hidden;fillColor=none;top=0;left=0;bottom=0;right=0;pointerEvents=1;fontSize=16;fontStyle=1" parent="Ubt92ZxgmZUFssLvZX3g-156" vertex="1">
          <mxGeometry x="525" width="58" height="58" as="geometry">
            <mxRectangle width="58" height="58" as="alternateBounds" />
          </mxGeometry>
        </mxCell>
        <mxCell id="Ubt92ZxgmZUFssLvZX3g-167" value="" style="shape=partialRectangle;html=1;whiteSpace=wrap;connectable=0;strokeColor=inherit;overflow=hidden;fillColor=none;top=0;left=0;bottom=0;right=0;pointerEvents=1;fontSize=16;fontStyle=1" parent="Ubt92ZxgmZUFssLvZX3g-156" vertex="1">
          <mxGeometry x="583" width="58" height="58" as="geometry">
            <mxRectangle width="58" height="58" as="alternateBounds" />
          </mxGeometry>
        </mxCell>
        <mxCell id="Ubt92ZxgmZUFssLvZX3g-168" value="" style="shape=partialRectangle;html=1;whiteSpace=wrap;connectable=0;strokeColor=inherit;overflow=hidden;fillColor=none;top=0;left=0;bottom=0;right=0;pointerEvents=1;fontSize=16;fontStyle=1" parent="Ubt92ZxgmZUFssLvZX3g-156" vertex="1">
          <mxGeometry x="641" width="59" height="58" as="geometry">
            <mxRectangle width="59" height="58" as="alternateBounds" />
          </mxGeometry>
        </mxCell>
        <mxCell id="W8eYCdg3Cg5RUqR9BUTG-310" value="" style="shape=image;verticalLabelPosition=bottom;labelBackgroundColor=default;verticalAlign=top;aspect=fixed;imageAspect=0;image=data:image/svg+xml,PHN2ZyB4bWxucz0iaHR0cDovL3d3dy53My5vcmcvMjAwMC9zdmciIHdpZHRoPSI0OCIgdmlld0JveD0iMCAwIDQ4IDQ4IiBoZWlnaHQ9IjQ4IiBmaWxsPSJub25lIj48cmVjdCB5PSIyOCIgeD0iNCIgd2lkdGg9IjQwIiBzdHJva2Utd2lkdGg9IjQiIHN0cm9rZS1saW5lam9pbj0icm91bmQiIHN0cm9rZS1saW5lY2FwPSJyb3VuZCIgc3Ryb2tlPSIjMDAwIiByeD0iMiIgaGVpZ2h0PSIxNCIgZmlsbD0iIzJmODhmZiIvPjxwYXRoIHN0cm9rZS13aWR0aD0iNCIgc3Ryb2tlLWxpbmVqb2luPSJyb3VuZCIgc3Ryb2tlLWxpbmVjYXA9InJvdW5kIiBzdHJva2U9IiNmZmYiIGQ9Im0xNCAzNWg4Ii8+PHJlY3QgeT0iMzMiIHg9IjMwIiB3aWR0aD0iNCIgcng9IjIiIGhlaWdodD0iNCIgZmlsbD0iI2ZmZiIvPjxnIHN0cm9rZS13aWR0aD0iNCIgc3Ryb2tlLWxpbmVqb2luPSJyb3VuZCIgc3Ryb2tlLWxpbmVjYXA9InJvdW5kIiBzdHJva2U9IiMwMDAiPjxwYXRoIGQ9Im0xMiAyOHYtMjAiLz48cGF0aCBkPSJtMzYgMjh2LTIwIi8+PC9nPjwvc3ZnPg==;fontStyle=1" parent="Ubt92ZxgmZUFssLvZX3g-11" vertex="1">
          <mxGeometry x="348" y="648" width="48" height="48" as="geometry" />
        </mxCell>
        <mxCell id="W8eYCdg3Cg5RUqR9BUTG-311" value="" style="shape=image;verticalLabelPosition=bottom;labelBackgroundColor=default;verticalAlign=top;aspect=fixed;imageAspect=0;image=data:image/svg+xml,PHN2ZyB4bWxucz0iaHR0cDovL3d3dy53My5vcmcvMjAwMC9zdmciIHdpZHRoPSI0OCIgdmlld0JveD0iMCAwIDQ4IDQ4IiBoZWlnaHQ9IjQ4IiBmaWxsPSJub25lIj48cmVjdCB5PSIyOCIgeD0iNCIgd2lkdGg9IjQwIiBzdHJva2Utd2lkdGg9IjQiIHN0cm9rZS1saW5lam9pbj0icm91bmQiIHN0cm9rZS1saW5lY2FwPSJyb3VuZCIgc3Ryb2tlPSIjMDAwIiByeD0iMiIgaGVpZ2h0PSIxNCIgZmlsbD0iIzJmODhmZiIvPjxwYXRoIHN0cm9rZS13aWR0aD0iNCIgc3Ryb2tlLWxpbmVqb2luPSJyb3VuZCIgc3Ryb2tlLWxpbmVjYXA9InJvdW5kIiBzdHJva2U9IiNmZmYiIGQ9Im0xNCAzNWg4Ii8+PHJlY3QgeT0iMzMiIHg9IjMwIiB3aWR0aD0iNCIgcng9IjIiIGhlaWdodD0iNCIgZmlsbD0iI2ZmZiIvPjxnIHN0cm9rZS13aWR0aD0iNCIgc3Ryb2tlLWxpbmVqb2luPSJyb3VuZCIgc3Ryb2tlLWxpbmVjYXA9InJvdW5kIiBzdHJva2U9IiMwMDAiPjxwYXRoIGQ9Im0xMiAyOHYtMjAiLz48cGF0aCBkPSJtMzYgMjh2LTIwIi8+PC9nPjwvc3ZnPg==;" parent="Ubt92ZxgmZUFssLvZX3g-11" vertex="1">
          <mxGeometry x="347" y="6" width="48" height="48" as="geometry" />
        </mxCell>
        <mxCell id="W8eYCdg3Cg5RUqR9BUTG-312" value="&lt;span style=&quot;font-size: 20px;&quot;&gt;&lt;b&gt;RX&lt;/b&gt;&lt;/span&gt;" style="text;html=1;align=center;verticalAlign=middle;resizable=0;points=[];autosize=1;strokeColor=none;fillColor=none;" parent="Ubt92ZxgmZUFssLvZX3g-11" vertex="1">
          <mxGeometry x="383" y="667" width="50" height="40" as="geometry" />
        </mxCell>
        <mxCell id="W8eYCdg3Cg5RUqR9BUTG-313" value="&lt;span style=&quot;font-size: 20px;&quot;&gt;&lt;b&gt;TX&lt;/b&gt;&lt;/span&gt;" style="text;html=1;align=center;verticalAlign=middle;resizable=0;points=[];autosize=1;strokeColor=none;fillColor=none;" parent="Ubt92ZxgmZUFssLvZX3g-11" vertex="1">
          <mxGeometry x="383" y="25" width="50" height="40" as="geometry" />
        </mxCell>
        <mxCell id="IIAiuKzzWedpKXB_Eh5K-0" value="" style="shape=curlyBracket;whiteSpace=wrap;html=1;rounded=1;flipH=1;labelPosition=right;verticalLabelPosition=middle;align=left;verticalAlign=middle;rotation=-90;strokeWidth=2;" parent="Ubt92ZxgmZUFssLvZX3g-11" vertex="1">
          <mxGeometry x="682.5" y="6" width="20" height="58" as="geometry" />
        </mxCell>
        <mxCell id="IIAiuKzzWedpKXB_Eh5K-1" value="&lt;span style=&quot;text-wrap: nowrap;&quot;&gt;&lt;font style=&quot;font-size: 22px;&quot;&gt;0.6m&lt;/font&gt;&lt;/span&gt;" style="text;html=1;align=center;verticalAlign=middle;whiteSpace=wrap;rounded=0;fontStyle=0" parent="Ubt92ZxgmZUFssLvZX3g-11" vertex="1">
          <mxGeometry x="660" width="65" height="30" as="geometry" />
        </mxCell>
        <mxCell id="IIAiuKzzWedpKXB_Eh5K-2" value="" style="shape=curlyBracket;whiteSpace=wrap;html=1;rounded=1;labelPosition=left;verticalLabelPosition=middle;align=right;verticalAlign=middle;strokeWidth=2;rotation=-180;" parent="Ubt92ZxgmZUFssLvZX3g-11" vertex="1">
          <mxGeometry x="730" y="54" width="20" height="58" as="geometry" />
        </mxCell>
        <mxCell id="IIAiuKzzWedpKXB_Eh5K-3" value="&lt;span style=&quot;text-wrap: nowrap;&quot;&gt;&lt;font style=&quot;font-size: 22px;&quot;&gt;0.6m&lt;/font&gt;&lt;/span&gt;" style="text;html=1;align=center;verticalAlign=middle;whiteSpace=wrap;rounded=0;fontStyle=0" parent="Ubt92ZxgmZUFssLvZX3g-11" vertex="1">
          <mxGeometry x="750" y="68" width="60" height="30" as="geometry" />
        </mxCell>
        <mxCell id="imPq2IafB8kzAiPnTk4q-8" value="" style="endArrow=classicThin;html=1;rounded=0;entryX=0.211;entryY=1.003;entryDx=0;entryDy=0;entryPerimeter=0;strokeWidth=3;fillColor=#f8cecc;strokeColor=#b85450;endFill=1;" parent="Ubt92ZxgmZUFssLvZX3g-11" edge="1">
          <mxGeometry width="50" height="50" relative="1" as="geometry">
            <mxPoint x="17" y="754" as="sourcePoint" />
            <mxPoint x="170" y="754" as="targetPoint" />
          </mxGeometry>
        </mxCell>
        <mxCell id="imPq2IafB8kzAiPnTk4q-9" value="" style="endArrow=classicThin;html=1;rounded=0;entryX=0;entryY=0.5;entryDx=0;entryDy=0;strokeWidth=3;fillColor=#f8cecc;strokeColor=#b85450;endFill=1;" parent="Ubt92ZxgmZUFssLvZX3g-11" edge="1">
          <mxGeometry width="50" height="50" relative="1" as="geometry">
            <mxPoint x="22" y="760" as="sourcePoint" />
            <mxPoint x="22" y="608" as="targetPoint" />
          </mxGeometry>
        </mxCell>
        <mxCell id="imPq2IafB8kzAiPnTk4q-10" value="&lt;font style=&quot;font-size: 22px;&quot;&gt;x&lt;/font&gt;" style="text;html=1;align=center;verticalAlign=middle;resizable=0;points=[];autosize=1;strokeColor=none;fillColor=none;fontStyle=1;fontSize=16;" parent="Ubt92ZxgmZUFssLvZX3g-11" vertex="1">
          <mxGeometry x="157" y="739" width="30" height="40" as="geometry" />
        </mxCell>
        <mxCell id="imPq2IafB8kzAiPnTk4q-11" value="&lt;font style=&quot;font-size: 22px;&quot;&gt;y&lt;/font&gt;" style="text;html=1;align=center;verticalAlign=middle;resizable=0;points=[];autosize=1;strokeColor=none;fillColor=none;fontStyle=1;fontSize=16;" parent="Ubt92ZxgmZUFssLvZX3g-11" vertex="1">
          <mxGeometry y="585" width="30" height="40" as="geometry" />
        </mxCell>
        <mxCell id="KcOYNywgns84QisbnSwY-0" value="" style="shape=curlyBracket;whiteSpace=wrap;html=1;rounded=1;flipH=1;labelPosition=right;verticalLabelPosition=middle;align=left;verticalAlign=middle;rotation=-90;strokeWidth=2;" parent="Ubt92ZxgmZUFssLvZX3g-11" vertex="1">
          <mxGeometry x="973.5" y="450" width="20" height="185" as="geometry" />
        </mxCell>
        <mxCell id="KcOYNywgns84QisbnSwY-1" value="" style="shape=curlyBracket;whiteSpace=wrap;html=1;rounded=1;labelPosition=left;verticalLabelPosition=middle;align=right;verticalAlign=middle;strokeWidth=2;rotation=-180;" parent="Ubt92ZxgmZUFssLvZX3g-11" vertex="1">
          <mxGeometry x="1081" y="562" width="20" height="186" as="geometry" />
        </mxCell>
        <mxCell id="KcOYNywgns84QisbnSwY-2" value="&lt;span style=&quot;text-wrap: nowrap;&quot;&gt;&lt;font style=&quot;font-size: 22px;&quot;&gt;0.6m&lt;/font&gt;&lt;/span&gt;" style="text;html=1;align=center;verticalAlign=middle;whiteSpace=wrap;rounded=0;fontStyle=0" parent="Ubt92ZxgmZUFssLvZX3g-11" vertex="1">
          <mxGeometry x="951" y="502.5" width="65" height="30" as="geometry" />
        </mxCell>
        <mxCell id="KcOYNywgns84QisbnSwY-3" value="&lt;span style=&quot;text-wrap: nowrap;&quot;&gt;&lt;font style=&quot;font-size: 22px;&quot;&gt;0.6m&lt;/font&gt;&lt;/span&gt;" style="text;html=1;align=center;verticalAlign=middle;whiteSpace=wrap;rounded=0;fontStyle=0" parent="Ubt92ZxgmZUFssLvZX3g-11" vertex="1">
          <mxGeometry x="1101" y="640" width="60" height="30" as="geometry" />
        </mxCell>
        <mxCell id="KcOYNywgns84QisbnSwY-4" value="1" style="shape=ellipse;fillColor=#ffe6cc;strokeColor=#d79b00;html=1;sketch=0;fontSize=18;" parent="Ubt92ZxgmZUFssLvZX3g-11" vertex="1">
          <mxGeometry x="906" y="710" width="22.5" height="22.5" as="geometry" />
        </mxCell>
        <mxCell id="KcOYNywgns84QisbnSwY-5" value="" style="rounded=0;whiteSpace=wrap;html=1;fillColor=#d5e8d4;strokeColor=#82b366;" parent="Ubt92ZxgmZUFssLvZX3g-11" vertex="1">
          <mxGeometry x="890" y="560" width="186" height="189" as="geometry" />
        </mxCell>
        <mxCell id="KcOYNywgns84QisbnSwY-6" value="" style="shape=ellipse;fillColor=#f8cecc;strokeColor=#b85450;html=1;sketch=0;" parent="Ubt92ZxgmZUFssLvZX3g-11" vertex="1">
          <mxGeometry x="966.75" y="638.25" width="32.5" height="32.5" as="geometry" />
        </mxCell>
        <mxCell id="KcOYNywgns84QisbnSwY-7" value="4" style="shape=ellipse;fillColor=#ffe6cc;strokeColor=#d79b00;html=1;sketch=0;fontSize=18;" parent="Ubt92ZxgmZUFssLvZX3g-11" vertex="1">
          <mxGeometry x="910" y="700" width="32.5" height="32.5" as="geometry" />
        </mxCell>
        <mxCell id="KcOYNywgns84QisbnSwY-8" value="1" style="shape=ellipse;fillColor=#ffe6cc;strokeColor=#d79b00;html=1;sketch=0;fontSize=18;" parent="Ubt92ZxgmZUFssLvZX3g-11" vertex="1">
          <mxGeometry x="910" y="580" width="32.5" height="32.5" as="geometry" />
        </mxCell>
        <mxCell id="KcOYNywgns84QisbnSwY-9" value="2" style="shape=ellipse;fillColor=#ffe6cc;strokeColor=#d79b00;html=1;sketch=0;fontSize=18;" parent="Ubt92ZxgmZUFssLvZX3g-11" vertex="1">
          <mxGeometry x="1026" y="580" width="32.5" height="32.5" as="geometry" />
        </mxCell>
        <mxCell id="KcOYNywgns84QisbnSwY-10" value="3" style="shape=ellipse;fillColor=#ffe6cc;strokeColor=#d79b00;html=1;sketch=0;fontSize=18;" parent="Ubt92ZxgmZUFssLvZX3g-11" vertex="1">
          <mxGeometry x="1026" y="700" width="32.5" height="32.5" as="geometry" />
        </mxCell>
        <mxCell id="W8eYCdg3Cg5RUqR9BUTG-85" value="Main Dot" style="" parent="0" />
        <mxCell id="W8eYCdg3Cg5RUqR9BUTG-86" value="" style="shape=ellipse;fillColor=#f8cecc;strokeColor=#b85450;html=1;sketch=0;" parent="W8eYCdg3Cg5RUqR9BUTG-85" vertex="1">
          <mxGeometry x="46" y="78" width="10" height="10" as="geometry" />
        </mxCell>
        <mxCell id="W8eYCdg3Cg5RUqR9BUTG-87" value="" style="shape=ellipse;fillColor=#f8cecc;strokeColor=#b85450;html=1;sketch=0;" parent="W8eYCdg3Cg5RUqR9BUTG-85" vertex="1">
          <mxGeometry x="104" y="78" width="10" height="10" as="geometry" />
        </mxCell>
        <mxCell id="W8eYCdg3Cg5RUqR9BUTG-135" value="" style="shape=ellipse;fillColor=#f8cecc;strokeColor=#b85450;html=1;sketch=0;" parent="W8eYCdg3Cg5RUqR9BUTG-85" vertex="1">
          <mxGeometry x="163" y="78" width="10" height="10" as="geometry" />
        </mxCell>
        <mxCell id="W8eYCdg3Cg5RUqR9BUTG-136" value="" style="shape=ellipse;fillColor=#f8cecc;strokeColor=#b85450;html=1;sketch=0;" parent="W8eYCdg3Cg5RUqR9BUTG-85" vertex="1">
          <mxGeometry x="221" y="78" width="10" height="10" as="geometry" />
        </mxCell>
        <mxCell id="W8eYCdg3Cg5RUqR9BUTG-137" value="" style="shape=ellipse;fillColor=#f8cecc;strokeColor=#b85450;html=1;sketch=0;" parent="W8eYCdg3Cg5RUqR9BUTG-85" vertex="1">
          <mxGeometry x="279" y="78" width="10" height="10" as="geometry" />
        </mxCell>
        <mxCell id="W8eYCdg3Cg5RUqR9BUTG-138" value="" style="shape=ellipse;fillColor=#f8cecc;strokeColor=#b85450;html=1;sketch=0;" parent="W8eYCdg3Cg5RUqR9BUTG-85" vertex="1">
          <mxGeometry x="338" y="78" width="10" height="10" as="geometry" />
        </mxCell>
        <mxCell id="W8eYCdg3Cg5RUqR9BUTG-139" value="" style="shape=ellipse;fillColor=#f8cecc;strokeColor=#b85450;html=1;sketch=0;" parent="W8eYCdg3Cg5RUqR9BUTG-85" vertex="1">
          <mxGeometry x="396" y="78" width="10" height="10" as="geometry" />
        </mxCell>
        <mxCell id="W8eYCdg3Cg5RUqR9BUTG-140" value="" style="shape=ellipse;fillColor=#f8cecc;strokeColor=#b85450;html=1;sketch=0;" parent="W8eYCdg3Cg5RUqR9BUTG-85" vertex="1">
          <mxGeometry x="454" y="78" width="10" height="10" as="geometry" />
        </mxCell>
        <mxCell id="W8eYCdg3Cg5RUqR9BUTG-141" value="" style="shape=ellipse;fillColor=#f8cecc;strokeColor=#b85450;html=1;sketch=0;" parent="W8eYCdg3Cg5RUqR9BUTG-85" vertex="1">
          <mxGeometry x="513" y="78" width="10" height="10" as="geometry" />
        </mxCell>
        <mxCell id="W8eYCdg3Cg5RUqR9BUTG-142" value="" style="shape=ellipse;fillColor=#f8cecc;strokeColor=#b85450;html=1;sketch=0;" parent="W8eYCdg3Cg5RUqR9BUTG-85" vertex="1">
          <mxGeometry x="571" y="78" width="10" height="10" as="geometry" />
        </mxCell>
        <mxCell id="W8eYCdg3Cg5RUqR9BUTG-143" value="" style="shape=ellipse;fillColor=#f8cecc;strokeColor=#b85450;html=1;sketch=0;" parent="W8eYCdg3Cg5RUqR9BUTG-85" vertex="1">
          <mxGeometry x="629" y="78" width="10" height="10" as="geometry" />
        </mxCell>
        <mxCell id="W8eYCdg3Cg5RUqR9BUTG-144" value="" style="shape=ellipse;fillColor=#f8cecc;strokeColor=#b85450;html=1;sketch=0;" parent="W8eYCdg3Cg5RUqR9BUTG-85" vertex="1">
          <mxGeometry x="688" y="78" width="10" height="10" as="geometry" />
        </mxCell>
        <mxCell id="W8eYCdg3Cg5RUqR9BUTG-145" value="" style="shape=ellipse;fillColor=#f8cecc;strokeColor=#b85450;html=1;sketch=0;" parent="W8eYCdg3Cg5RUqR9BUTG-85" vertex="1">
          <mxGeometry x="46" y="136" width="10" height="10" as="geometry" />
        </mxCell>
        <mxCell id="W8eYCdg3Cg5RUqR9BUTG-146" value="" style="shape=ellipse;fillColor=#f8cecc;strokeColor=#b85450;html=1;sketch=0;" parent="W8eYCdg3Cg5RUqR9BUTG-85" vertex="1">
          <mxGeometry x="104" y="136" width="10" height="10" as="geometry" />
        </mxCell>
        <mxCell id="W8eYCdg3Cg5RUqR9BUTG-147" value="" style="shape=ellipse;fillColor=#f8cecc;strokeColor=#b85450;html=1;sketch=0;" parent="W8eYCdg3Cg5RUqR9BUTG-85" vertex="1">
          <mxGeometry x="163" y="136" width="10" height="10" as="geometry" />
        </mxCell>
        <mxCell id="W8eYCdg3Cg5RUqR9BUTG-148" value="" style="shape=ellipse;fillColor=#f8cecc;strokeColor=#b85450;html=1;sketch=0;" parent="W8eYCdg3Cg5RUqR9BUTG-85" vertex="1">
          <mxGeometry x="221" y="136" width="10" height="10" as="geometry" />
        </mxCell>
        <mxCell id="W8eYCdg3Cg5RUqR9BUTG-149" value="" style="shape=ellipse;fillColor=#f8cecc;strokeColor=#b85450;html=1;sketch=0;" parent="W8eYCdg3Cg5RUqR9BUTG-85" vertex="1">
          <mxGeometry x="279" y="136" width="10" height="10" as="geometry" />
        </mxCell>
        <mxCell id="W8eYCdg3Cg5RUqR9BUTG-150" value="" style="shape=ellipse;fillColor=#f8cecc;strokeColor=#b85450;html=1;sketch=0;" parent="W8eYCdg3Cg5RUqR9BUTG-85" vertex="1">
          <mxGeometry x="338" y="136" width="10" height="10" as="geometry" />
        </mxCell>
        <mxCell id="W8eYCdg3Cg5RUqR9BUTG-151" value="" style="shape=ellipse;fillColor=#f8cecc;strokeColor=#b85450;html=1;sketch=0;" parent="W8eYCdg3Cg5RUqR9BUTG-85" vertex="1">
          <mxGeometry x="396" y="136" width="10" height="10" as="geometry" />
        </mxCell>
        <mxCell id="W8eYCdg3Cg5RUqR9BUTG-152" value="" style="shape=ellipse;fillColor=#f8cecc;strokeColor=#b85450;html=1;sketch=0;" parent="W8eYCdg3Cg5RUqR9BUTG-85" vertex="1">
          <mxGeometry x="454" y="136" width="10" height="10" as="geometry" />
        </mxCell>
        <mxCell id="W8eYCdg3Cg5RUqR9BUTG-153" value="" style="shape=ellipse;fillColor=#f8cecc;strokeColor=#b85450;html=1;sketch=0;" parent="W8eYCdg3Cg5RUqR9BUTG-85" vertex="1">
          <mxGeometry x="513" y="136" width="10" height="10" as="geometry" />
        </mxCell>
        <mxCell id="W8eYCdg3Cg5RUqR9BUTG-154" value="" style="shape=ellipse;fillColor=#f8cecc;strokeColor=#b85450;html=1;sketch=0;" parent="W8eYCdg3Cg5RUqR9BUTG-85" vertex="1">
          <mxGeometry x="571" y="136" width="10" height="10" as="geometry" />
        </mxCell>
        <mxCell id="W8eYCdg3Cg5RUqR9BUTG-155" value="" style="shape=ellipse;fillColor=#f8cecc;strokeColor=#b85450;html=1;sketch=0;" parent="W8eYCdg3Cg5RUqR9BUTG-85" vertex="1">
          <mxGeometry x="629" y="136" width="10" height="10" as="geometry" />
        </mxCell>
        <mxCell id="W8eYCdg3Cg5RUqR9BUTG-156" value="" style="shape=ellipse;fillColor=#f8cecc;strokeColor=#b85450;html=1;sketch=0;" parent="W8eYCdg3Cg5RUqR9BUTG-85" vertex="1">
          <mxGeometry x="688" y="136" width="10" height="10" as="geometry" />
        </mxCell>
        <mxCell id="W8eYCdg3Cg5RUqR9BUTG-157" value="" style="shape=partialRectangle;html=1;whiteSpace=wrap;connectable=0;strokeColor=inherit;overflow=hidden;fillColor=none;top=0;left=0;bottom=0;right=0;pointerEvents=1;fontSize=16;fontStyle=1" parent="W8eYCdg3Cg5RUqR9BUTG-85" vertex="1">
          <mxGeometry x="80" y="229" width="59" height="59" as="geometry">
            <mxRectangle width="59" height="59" as="alternateBounds" />
          </mxGeometry>
        </mxCell>
        <mxCell id="W8eYCdg3Cg5RUqR9BUTG-158" value="" style="shape=partialRectangle;html=1;whiteSpace=wrap;connectable=0;strokeColor=inherit;overflow=hidden;fillColor=none;top=0;left=0;bottom=0;right=0;pointerEvents=1;fontSize=16;fontStyle=1" parent="W8eYCdg3Cg5RUqR9BUTG-85" vertex="1">
          <mxGeometry x="139" y="229" width="58" height="59" as="geometry">
            <mxRectangle width="58" height="59" as="alternateBounds" />
          </mxGeometry>
        </mxCell>
        <mxCell id="W8eYCdg3Cg5RUqR9BUTG-159" value="" style="shape=partialRectangle;html=1;whiteSpace=wrap;connectable=0;strokeColor=inherit;overflow=hidden;fillColor=none;top=0;left=0;bottom=0;right=0;pointerEvents=1;fontSize=16;fontStyle=1" parent="W8eYCdg3Cg5RUqR9BUTG-85" vertex="1">
          <mxGeometry x="197" y="229" width="58" height="59" as="geometry">
            <mxRectangle width="58" height="59" as="alternateBounds" />
          </mxGeometry>
        </mxCell>
        <mxCell id="W8eYCdg3Cg5RUqR9BUTG-160" value="" style="shape=partialRectangle;html=1;whiteSpace=wrap;connectable=0;strokeColor=inherit;overflow=hidden;fillColor=none;top=0;left=0;bottom=0;right=0;pointerEvents=1;fontSize=16;fontStyle=1" parent="W8eYCdg3Cg5RUqR9BUTG-85" vertex="1">
          <mxGeometry x="255" y="229" width="59" height="59" as="geometry">
            <mxRectangle width="59" height="59" as="alternateBounds" />
          </mxGeometry>
        </mxCell>
        <mxCell id="W8eYCdg3Cg5RUqR9BUTG-161" value="" style="shape=partialRectangle;html=1;whiteSpace=wrap;connectable=0;strokeColor=inherit;overflow=hidden;fillColor=none;top=0;left=0;bottom=0;right=0;pointerEvents=1;fontSize=16;fontStyle=1" parent="W8eYCdg3Cg5RUqR9BUTG-85" vertex="1">
          <mxGeometry x="314" y="229" width="57" height="59" as="geometry">
            <mxRectangle width="57" height="59" as="alternateBounds" />
          </mxGeometry>
        </mxCell>
        <mxCell id="W8eYCdg3Cg5RUqR9BUTG-162" value="" style="shape=partialRectangle;html=1;whiteSpace=wrap;connectable=0;strokeColor=inherit;overflow=hidden;fillColor=none;top=0;left=0;bottom=0;right=0;pointerEvents=1;fontSize=16;fontStyle=1" parent="W8eYCdg3Cg5RUqR9BUTG-85" vertex="1">
          <mxGeometry x="371" y="229" width="59" height="59" as="geometry">
            <mxRectangle width="59" height="59" as="alternateBounds" />
          </mxGeometry>
        </mxCell>
        <mxCell id="W8eYCdg3Cg5RUqR9BUTG-163" value="" style="shape=partialRectangle;html=1;whiteSpace=wrap;connectable=0;strokeColor=inherit;overflow=hidden;fillColor=none;top=0;left=0;bottom=0;right=0;pointerEvents=1;fontSize=16;fontStyle=1" parent="W8eYCdg3Cg5RUqR9BUTG-85" vertex="1">
          <mxGeometry x="430" y="229" width="59" height="59" as="geometry">
            <mxRectangle width="59" height="59" as="alternateBounds" />
          </mxGeometry>
        </mxCell>
        <mxCell id="W8eYCdg3Cg5RUqR9BUTG-164" value="" style="shape=partialRectangle;html=1;whiteSpace=wrap;connectable=0;strokeColor=inherit;overflow=hidden;fillColor=none;top=0;left=0;bottom=0;right=0;pointerEvents=1;fontSize=16;fontStyle=1" parent="W8eYCdg3Cg5RUqR9BUTG-85" vertex="1">
          <mxGeometry x="489" y="229" width="58" height="59" as="geometry">
            <mxRectangle width="58" height="59" as="alternateBounds" />
          </mxGeometry>
        </mxCell>
        <mxCell id="W8eYCdg3Cg5RUqR9BUTG-165" value="" style="shape=partialRectangle;html=1;whiteSpace=wrap;connectable=0;strokeColor=inherit;overflow=hidden;fillColor=none;top=0;left=0;bottom=0;right=0;pointerEvents=1;fontSize=16;fontStyle=1" parent="W8eYCdg3Cg5RUqR9BUTG-85" vertex="1">
          <mxGeometry x="547" y="229" width="58" height="59" as="geometry">
            <mxRectangle width="58" height="59" as="alternateBounds" />
          </mxGeometry>
        </mxCell>
        <mxCell id="W8eYCdg3Cg5RUqR9BUTG-166" value="" style="shape=partialRectangle;html=1;whiteSpace=wrap;connectable=0;strokeColor=inherit;overflow=hidden;fillColor=none;top=0;left=0;bottom=0;right=0;pointerEvents=1;fontSize=16;fontStyle=1" parent="W8eYCdg3Cg5RUqR9BUTG-85" vertex="1">
          <mxGeometry x="605" y="229" width="58" height="59" as="geometry">
            <mxRectangle width="58" height="59" as="alternateBounds" />
          </mxGeometry>
        </mxCell>
        <mxCell id="W8eYCdg3Cg5RUqR9BUTG-167" value="" style="shape=partialRectangle;html=1;whiteSpace=wrap;connectable=0;strokeColor=inherit;overflow=hidden;fillColor=none;top=0;left=0;bottom=0;right=0;pointerEvents=1;fontSize=16;fontStyle=1" parent="W8eYCdg3Cg5RUqR9BUTG-85" vertex="1">
          <mxGeometry x="663" y="229" width="59" height="59" as="geometry">
            <mxRectangle width="59" height="59" as="alternateBounds" />
          </mxGeometry>
        </mxCell>
        <mxCell id="W8eYCdg3Cg5RUqR9BUTG-168" value="" style="shape=ellipse;fillColor=#f8cecc;strokeColor=#b85450;html=1;sketch=0;" parent="W8eYCdg3Cg5RUqR9BUTG-85" vertex="1">
          <mxGeometry x="46" y="195" width="10" height="10" as="geometry" />
        </mxCell>
        <mxCell id="W8eYCdg3Cg5RUqR9BUTG-169" value="" style="shape=ellipse;fillColor=#f8cecc;strokeColor=#b85450;html=1;sketch=0;" parent="W8eYCdg3Cg5RUqR9BUTG-85" vertex="1">
          <mxGeometry x="104" y="195" width="10" height="10" as="geometry" />
        </mxCell>
        <mxCell id="W8eYCdg3Cg5RUqR9BUTG-170" value="" style="shape=ellipse;fillColor=#f8cecc;strokeColor=#b85450;html=1;sketch=0;" parent="W8eYCdg3Cg5RUqR9BUTG-85" vertex="1">
          <mxGeometry x="163" y="195" width="10" height="10" as="geometry" />
        </mxCell>
        <mxCell id="W8eYCdg3Cg5RUqR9BUTG-171" value="" style="shape=ellipse;fillColor=#f8cecc;strokeColor=#b85450;html=1;sketch=0;" parent="W8eYCdg3Cg5RUqR9BUTG-85" vertex="1">
          <mxGeometry x="221" y="195" width="10" height="10" as="geometry" />
        </mxCell>
        <mxCell id="W8eYCdg3Cg5RUqR9BUTG-172" value="" style="shape=ellipse;fillColor=#f8cecc;strokeColor=#b85450;html=1;sketch=0;" parent="W8eYCdg3Cg5RUqR9BUTG-85" vertex="1">
          <mxGeometry x="279" y="195" width="10" height="10" as="geometry" />
        </mxCell>
        <mxCell id="W8eYCdg3Cg5RUqR9BUTG-173" value="" style="shape=ellipse;fillColor=#f8cecc;strokeColor=#b85450;html=1;sketch=0;" parent="W8eYCdg3Cg5RUqR9BUTG-85" vertex="1">
          <mxGeometry x="338" y="195" width="10" height="10" as="geometry" />
        </mxCell>
        <mxCell id="W8eYCdg3Cg5RUqR9BUTG-174" value="" style="shape=ellipse;fillColor=#f8cecc;strokeColor=#b85450;html=1;sketch=0;" parent="W8eYCdg3Cg5RUqR9BUTG-85" vertex="1">
          <mxGeometry x="396" y="195" width="10" height="10" as="geometry" />
        </mxCell>
        <mxCell id="W8eYCdg3Cg5RUqR9BUTG-175" value="" style="shape=ellipse;fillColor=#f8cecc;strokeColor=#b85450;html=1;sketch=0;" parent="W8eYCdg3Cg5RUqR9BUTG-85" vertex="1">
          <mxGeometry x="454" y="195" width="10" height="10" as="geometry" />
        </mxCell>
        <mxCell id="W8eYCdg3Cg5RUqR9BUTG-176" value="" style="shape=ellipse;fillColor=#f8cecc;strokeColor=#b85450;html=1;sketch=0;" parent="W8eYCdg3Cg5RUqR9BUTG-85" vertex="1">
          <mxGeometry x="513" y="195" width="10" height="10" as="geometry" />
        </mxCell>
        <mxCell id="W8eYCdg3Cg5RUqR9BUTG-177" value="" style="shape=ellipse;fillColor=#f8cecc;strokeColor=#b85450;html=1;sketch=0;" parent="W8eYCdg3Cg5RUqR9BUTG-85" vertex="1">
          <mxGeometry x="571" y="195" width="10" height="10" as="geometry" />
        </mxCell>
        <mxCell id="W8eYCdg3Cg5RUqR9BUTG-178" value="" style="shape=ellipse;fillColor=#f8cecc;strokeColor=#b85450;html=1;sketch=0;" parent="W8eYCdg3Cg5RUqR9BUTG-85" vertex="1">
          <mxGeometry x="629" y="195" width="10" height="10" as="geometry" />
        </mxCell>
        <mxCell id="W8eYCdg3Cg5RUqR9BUTG-179" value="" style="shape=ellipse;fillColor=#f8cecc;strokeColor=#b85450;html=1;sketch=0;" parent="W8eYCdg3Cg5RUqR9BUTG-85" vertex="1">
          <mxGeometry x="688" y="195" width="10" height="10" as="geometry" />
        </mxCell>
        <mxCell id="W8eYCdg3Cg5RUqR9BUTG-180" value="" style="shape=ellipse;fillColor=#f8cecc;strokeColor=#b85450;html=1;sketch=0;" parent="W8eYCdg3Cg5RUqR9BUTG-85" vertex="1">
          <mxGeometry x="46" y="253" width="10" height="10" as="geometry" />
        </mxCell>
        <mxCell id="W8eYCdg3Cg5RUqR9BUTG-181" value="" style="shape=ellipse;fillColor=#f8cecc;strokeColor=#b85450;html=1;sketch=0;" parent="W8eYCdg3Cg5RUqR9BUTG-85" vertex="1">
          <mxGeometry x="104" y="253" width="10" height="10" as="geometry" />
        </mxCell>
        <mxCell id="W8eYCdg3Cg5RUqR9BUTG-182" value="" style="shape=ellipse;fillColor=#f8cecc;strokeColor=#b85450;html=1;sketch=0;" parent="W8eYCdg3Cg5RUqR9BUTG-85" vertex="1">
          <mxGeometry x="163" y="253" width="10" height="10" as="geometry" />
        </mxCell>
        <mxCell id="W8eYCdg3Cg5RUqR9BUTG-183" value="" style="shape=ellipse;fillColor=#f8cecc;strokeColor=#b85450;html=1;sketch=0;" parent="W8eYCdg3Cg5RUqR9BUTG-85" vertex="1">
          <mxGeometry x="221" y="253" width="10" height="10" as="geometry" />
        </mxCell>
        <mxCell id="W8eYCdg3Cg5RUqR9BUTG-184" value="" style="shape=ellipse;fillColor=#f8cecc;strokeColor=#b85450;html=1;sketch=0;" parent="W8eYCdg3Cg5RUqR9BUTG-85" vertex="1">
          <mxGeometry x="279" y="253" width="10" height="10" as="geometry" />
        </mxCell>
        <mxCell id="W8eYCdg3Cg5RUqR9BUTG-185" value="" style="shape=ellipse;fillColor=#f8cecc;strokeColor=#b85450;html=1;sketch=0;" parent="W8eYCdg3Cg5RUqR9BUTG-85" vertex="1">
          <mxGeometry x="338" y="253" width="10" height="10" as="geometry" />
        </mxCell>
        <mxCell id="W8eYCdg3Cg5RUqR9BUTG-186" value="" style="shape=ellipse;fillColor=#f8cecc;strokeColor=#b85450;html=1;sketch=0;" parent="W8eYCdg3Cg5RUqR9BUTG-85" vertex="1">
          <mxGeometry x="396" y="253" width="10" height="10" as="geometry" />
        </mxCell>
        <mxCell id="W8eYCdg3Cg5RUqR9BUTG-187" value="" style="shape=ellipse;fillColor=#f8cecc;strokeColor=#b85450;html=1;sketch=0;" parent="W8eYCdg3Cg5RUqR9BUTG-85" vertex="1">
          <mxGeometry x="454" y="253" width="10" height="10" as="geometry" />
        </mxCell>
        <mxCell id="W8eYCdg3Cg5RUqR9BUTG-188" value="" style="shape=ellipse;fillColor=#f8cecc;strokeColor=#b85450;html=1;sketch=0;" parent="W8eYCdg3Cg5RUqR9BUTG-85" vertex="1">
          <mxGeometry x="513" y="253" width="10" height="10" as="geometry" />
        </mxCell>
        <mxCell id="W8eYCdg3Cg5RUqR9BUTG-189" value="" style="shape=ellipse;fillColor=#f8cecc;strokeColor=#b85450;html=1;sketch=0;" parent="W8eYCdg3Cg5RUqR9BUTG-85" vertex="1">
          <mxGeometry x="571" y="253" width="10" height="10" as="geometry" />
        </mxCell>
        <mxCell id="W8eYCdg3Cg5RUqR9BUTG-190" value="" style="shape=ellipse;fillColor=#f8cecc;strokeColor=#b85450;html=1;sketch=0;" parent="W8eYCdg3Cg5RUqR9BUTG-85" vertex="1">
          <mxGeometry x="629" y="253" width="10" height="10" as="geometry" />
        </mxCell>
        <mxCell id="W8eYCdg3Cg5RUqR9BUTG-191" value="" style="shape=ellipse;fillColor=#f8cecc;strokeColor=#b85450;html=1;sketch=0;" parent="W8eYCdg3Cg5RUqR9BUTG-85" vertex="1">
          <mxGeometry x="688" y="253" width="10" height="10" as="geometry" />
        </mxCell>
        <mxCell id="W8eYCdg3Cg5RUqR9BUTG-192" value="" style="shape=ellipse;fillColor=#f8cecc;strokeColor=#b85450;html=1;sketch=0;" parent="W8eYCdg3Cg5RUqR9BUTG-85" vertex="1">
          <mxGeometry x="46" y="311" width="10" height="10" as="geometry" />
        </mxCell>
        <mxCell id="W8eYCdg3Cg5RUqR9BUTG-193" value="" style="shape=ellipse;fillColor=#f8cecc;strokeColor=#b85450;html=1;sketch=0;" parent="W8eYCdg3Cg5RUqR9BUTG-85" vertex="1">
          <mxGeometry x="104" y="310" width="10" height="10" as="geometry" />
        </mxCell>
        <mxCell id="W8eYCdg3Cg5RUqR9BUTG-194" value="" style="shape=ellipse;fillColor=#f8cecc;strokeColor=#b85450;html=1;sketch=0;" parent="W8eYCdg3Cg5RUqR9BUTG-85" vertex="1">
          <mxGeometry x="163" y="310" width="10" height="10" as="geometry" />
        </mxCell>
        <mxCell id="W8eYCdg3Cg5RUqR9BUTG-195" value="" style="shape=ellipse;fillColor=#f8cecc;strokeColor=#b85450;html=1;sketch=0;" parent="W8eYCdg3Cg5RUqR9BUTG-85" vertex="1">
          <mxGeometry x="221" y="310" width="10" height="10" as="geometry" />
        </mxCell>
        <mxCell id="W8eYCdg3Cg5RUqR9BUTG-196" value="" style="shape=ellipse;fillColor=#f8cecc;strokeColor=#b85450;html=1;sketch=0;" parent="W8eYCdg3Cg5RUqR9BUTG-85" vertex="1">
          <mxGeometry x="279" y="310" width="10" height="10" as="geometry" />
        </mxCell>
        <mxCell id="W8eYCdg3Cg5RUqR9BUTG-197" value="" style="shape=ellipse;fillColor=#f8cecc;strokeColor=#b85450;html=1;sketch=0;" parent="W8eYCdg3Cg5RUqR9BUTG-85" vertex="1">
          <mxGeometry x="338" y="310" width="10" height="10" as="geometry" />
        </mxCell>
        <mxCell id="W8eYCdg3Cg5RUqR9BUTG-198" value="" style="shape=ellipse;fillColor=#f8cecc;strokeColor=#b85450;html=1;sketch=0;" parent="W8eYCdg3Cg5RUqR9BUTG-85" vertex="1">
          <mxGeometry x="396" y="310" width="10" height="10" as="geometry" />
        </mxCell>
        <mxCell id="W8eYCdg3Cg5RUqR9BUTG-199" value="" style="shape=ellipse;fillColor=#f8cecc;strokeColor=#b85450;html=1;sketch=0;" parent="W8eYCdg3Cg5RUqR9BUTG-85" vertex="1">
          <mxGeometry x="454" y="310" width="10" height="10" as="geometry" />
        </mxCell>
        <mxCell id="W8eYCdg3Cg5RUqR9BUTG-200" value="" style="shape=ellipse;fillColor=#f8cecc;strokeColor=#b85450;html=1;sketch=0;" parent="W8eYCdg3Cg5RUqR9BUTG-85" vertex="1">
          <mxGeometry x="513" y="310" width="10" height="10" as="geometry" />
        </mxCell>
        <mxCell id="W8eYCdg3Cg5RUqR9BUTG-201" value="" style="shape=ellipse;fillColor=#f8cecc;strokeColor=#b85450;html=1;sketch=0;" parent="W8eYCdg3Cg5RUqR9BUTG-85" vertex="1">
          <mxGeometry x="571" y="310" width="10" height="10" as="geometry" />
        </mxCell>
        <mxCell id="W8eYCdg3Cg5RUqR9BUTG-202" value="" style="shape=ellipse;fillColor=#f8cecc;strokeColor=#b85450;html=1;sketch=0;" parent="W8eYCdg3Cg5RUqR9BUTG-85" vertex="1">
          <mxGeometry x="629" y="310" width="10" height="10" as="geometry" />
        </mxCell>
        <mxCell id="W8eYCdg3Cg5RUqR9BUTG-203" value="" style="shape=ellipse;fillColor=#f8cecc;strokeColor=#b85450;html=1;sketch=0;" parent="W8eYCdg3Cg5RUqR9BUTG-85" vertex="1">
          <mxGeometry x="688" y="310" width="10" height="10" as="geometry" />
        </mxCell>
        <mxCell id="W8eYCdg3Cg5RUqR9BUTG-204" value="" style="shape=ellipse;fillColor=#f8cecc;strokeColor=#b85450;html=1;sketch=0;" parent="W8eYCdg3Cg5RUqR9BUTG-85" vertex="1">
          <mxGeometry x="46" y="368" width="10" height="10" as="geometry" />
        </mxCell>
        <mxCell id="W8eYCdg3Cg5RUqR9BUTG-205" value="" style="shape=ellipse;fillColor=#f8cecc;strokeColor=#b85450;html=1;sketch=0;" parent="W8eYCdg3Cg5RUqR9BUTG-85" vertex="1">
          <mxGeometry x="104" y="368" width="10" height="10" as="geometry" />
        </mxCell>
        <mxCell id="W8eYCdg3Cg5RUqR9BUTG-206" value="" style="shape=ellipse;fillColor=#f8cecc;strokeColor=#b85450;html=1;sketch=0;" parent="W8eYCdg3Cg5RUqR9BUTG-85" vertex="1">
          <mxGeometry x="163" y="368" width="10" height="10" as="geometry" />
        </mxCell>
        <mxCell id="W8eYCdg3Cg5RUqR9BUTG-207" value="" style="shape=ellipse;fillColor=#f8cecc;strokeColor=#b85450;html=1;sketch=0;" parent="W8eYCdg3Cg5RUqR9BUTG-85" vertex="1">
          <mxGeometry x="221" y="368" width="10" height="10" as="geometry" />
        </mxCell>
        <mxCell id="W8eYCdg3Cg5RUqR9BUTG-208" value="" style="shape=ellipse;fillColor=#f8cecc;strokeColor=#b85450;html=1;sketch=0;" parent="W8eYCdg3Cg5RUqR9BUTG-85" vertex="1">
          <mxGeometry x="279" y="368" width="10" height="10" as="geometry" />
        </mxCell>
        <mxCell id="W8eYCdg3Cg5RUqR9BUTG-209" value="" style="shape=ellipse;fillColor=#f8cecc;strokeColor=#b85450;html=1;sketch=0;" parent="W8eYCdg3Cg5RUqR9BUTG-85" vertex="1">
          <mxGeometry x="338" y="368" width="10" height="10" as="geometry" />
        </mxCell>
        <mxCell id="W8eYCdg3Cg5RUqR9BUTG-210" value="" style="shape=ellipse;fillColor=#f8cecc;strokeColor=#b85450;html=1;sketch=0;" parent="W8eYCdg3Cg5RUqR9BUTG-85" vertex="1">
          <mxGeometry x="396" y="368" width="10" height="10" as="geometry" />
        </mxCell>
        <mxCell id="W8eYCdg3Cg5RUqR9BUTG-211" value="" style="shape=ellipse;fillColor=#f8cecc;strokeColor=#b85450;html=1;sketch=0;" parent="W8eYCdg3Cg5RUqR9BUTG-85" vertex="1">
          <mxGeometry x="454" y="368" width="10" height="10" as="geometry" />
        </mxCell>
        <mxCell id="W8eYCdg3Cg5RUqR9BUTG-212" value="" style="shape=ellipse;fillColor=#f8cecc;strokeColor=#b85450;html=1;sketch=0;" parent="W8eYCdg3Cg5RUqR9BUTG-85" vertex="1">
          <mxGeometry x="513" y="368" width="10" height="10" as="geometry" />
        </mxCell>
        <mxCell id="W8eYCdg3Cg5RUqR9BUTG-213" value="" style="shape=ellipse;fillColor=#f8cecc;strokeColor=#b85450;html=1;sketch=0;" parent="W8eYCdg3Cg5RUqR9BUTG-85" vertex="1">
          <mxGeometry x="571" y="368" width="10" height="10" as="geometry" />
        </mxCell>
        <mxCell id="W8eYCdg3Cg5RUqR9BUTG-214" value="" style="shape=ellipse;fillColor=#f8cecc;strokeColor=#b85450;html=1;sketch=0;" parent="W8eYCdg3Cg5RUqR9BUTG-85" vertex="1">
          <mxGeometry x="629" y="368" width="10" height="10" as="geometry" />
        </mxCell>
        <mxCell id="W8eYCdg3Cg5RUqR9BUTG-215" value="" style="shape=ellipse;fillColor=#f8cecc;strokeColor=#b85450;html=1;sketch=0;" parent="W8eYCdg3Cg5RUqR9BUTG-85" vertex="1">
          <mxGeometry x="688" y="368" width="10" height="10" as="geometry" />
        </mxCell>
        <mxCell id="W8eYCdg3Cg5RUqR9BUTG-216" value="" style="shape=partialRectangle;html=1;whiteSpace=wrap;connectable=0;strokeColor=inherit;overflow=hidden;fillColor=none;top=0;left=0;bottom=0;right=0;pointerEvents=1;fontSize=16;fontStyle=1" parent="W8eYCdg3Cg5RUqR9BUTG-85" vertex="1">
          <mxGeometry x="80" y="461" width="59" height="59" as="geometry">
            <mxRectangle width="59" height="59" as="alternateBounds" />
          </mxGeometry>
        </mxCell>
        <mxCell id="W8eYCdg3Cg5RUqR9BUTG-217" value="" style="shape=partialRectangle;html=1;whiteSpace=wrap;connectable=0;strokeColor=inherit;overflow=hidden;fillColor=none;top=0;left=0;bottom=0;right=0;pointerEvents=1;fontSize=16;fontStyle=1" parent="W8eYCdg3Cg5RUqR9BUTG-85" vertex="1">
          <mxGeometry x="139" y="461" width="58" height="59" as="geometry">
            <mxRectangle width="58" height="59" as="alternateBounds" />
          </mxGeometry>
        </mxCell>
        <mxCell id="W8eYCdg3Cg5RUqR9BUTG-218" value="" style="shape=partialRectangle;html=1;whiteSpace=wrap;connectable=0;strokeColor=inherit;overflow=hidden;fillColor=none;top=0;left=0;bottom=0;right=0;pointerEvents=1;fontSize=16;fontStyle=1" parent="W8eYCdg3Cg5RUqR9BUTG-85" vertex="1">
          <mxGeometry x="197" y="461" width="58" height="59" as="geometry">
            <mxRectangle width="58" height="59" as="alternateBounds" />
          </mxGeometry>
        </mxCell>
        <mxCell id="W8eYCdg3Cg5RUqR9BUTG-219" value="" style="shape=partialRectangle;html=1;whiteSpace=wrap;connectable=0;strokeColor=inherit;overflow=hidden;fillColor=none;top=0;left=0;bottom=0;right=0;pointerEvents=1;fontSize=16;fontStyle=1" parent="W8eYCdg3Cg5RUqR9BUTG-85" vertex="1">
          <mxGeometry x="255" y="461" width="59" height="59" as="geometry">
            <mxRectangle width="59" height="59" as="alternateBounds" />
          </mxGeometry>
        </mxCell>
        <mxCell id="W8eYCdg3Cg5RUqR9BUTG-220" value="" style="shape=partialRectangle;html=1;whiteSpace=wrap;connectable=0;strokeColor=inherit;overflow=hidden;fillColor=none;top=0;left=0;bottom=0;right=0;pointerEvents=1;fontSize=16;fontStyle=1" parent="W8eYCdg3Cg5RUqR9BUTG-85" vertex="1">
          <mxGeometry x="314" y="461" width="57" height="59" as="geometry">
            <mxRectangle width="57" height="59" as="alternateBounds" />
          </mxGeometry>
        </mxCell>
        <mxCell id="W8eYCdg3Cg5RUqR9BUTG-221" value="" style="shape=partialRectangle;html=1;whiteSpace=wrap;connectable=0;strokeColor=inherit;overflow=hidden;fillColor=none;top=0;left=0;bottom=0;right=0;pointerEvents=1;fontSize=16;fontStyle=1" parent="W8eYCdg3Cg5RUqR9BUTG-85" vertex="1">
          <mxGeometry x="371" y="461" width="59" height="59" as="geometry">
            <mxRectangle width="59" height="59" as="alternateBounds" />
          </mxGeometry>
        </mxCell>
        <mxCell id="W8eYCdg3Cg5RUqR9BUTG-222" value="" style="shape=partialRectangle;html=1;whiteSpace=wrap;connectable=0;strokeColor=inherit;overflow=hidden;fillColor=none;top=0;left=0;bottom=0;right=0;pointerEvents=1;fontSize=16;fontStyle=1" parent="W8eYCdg3Cg5RUqR9BUTG-85" vertex="1">
          <mxGeometry x="430" y="461" width="59" height="59" as="geometry">
            <mxRectangle width="59" height="59" as="alternateBounds" />
          </mxGeometry>
        </mxCell>
        <mxCell id="W8eYCdg3Cg5RUqR9BUTG-223" value="" style="shape=partialRectangle;html=1;whiteSpace=wrap;connectable=0;strokeColor=inherit;overflow=hidden;fillColor=none;top=0;left=0;bottom=0;right=0;pointerEvents=1;fontSize=16;fontStyle=1" parent="W8eYCdg3Cg5RUqR9BUTG-85" vertex="1">
          <mxGeometry x="489" y="461" width="58" height="59" as="geometry">
            <mxRectangle width="58" height="59" as="alternateBounds" />
          </mxGeometry>
        </mxCell>
        <mxCell id="W8eYCdg3Cg5RUqR9BUTG-224" value="" style="shape=partialRectangle;html=1;whiteSpace=wrap;connectable=0;strokeColor=inherit;overflow=hidden;fillColor=none;top=0;left=0;bottom=0;right=0;pointerEvents=1;fontSize=16;fontStyle=1" parent="W8eYCdg3Cg5RUqR9BUTG-85" vertex="1">
          <mxGeometry x="547" y="461" width="58" height="59" as="geometry">
            <mxRectangle width="58" height="59" as="alternateBounds" />
          </mxGeometry>
        </mxCell>
        <mxCell id="W8eYCdg3Cg5RUqR9BUTG-225" value="" style="shape=partialRectangle;html=1;whiteSpace=wrap;connectable=0;strokeColor=inherit;overflow=hidden;fillColor=none;top=0;left=0;bottom=0;right=0;pointerEvents=1;fontSize=16;fontStyle=1" parent="W8eYCdg3Cg5RUqR9BUTG-85" vertex="1">
          <mxGeometry x="605" y="461" width="58" height="59" as="geometry">
            <mxRectangle width="58" height="59" as="alternateBounds" />
          </mxGeometry>
        </mxCell>
        <mxCell id="W8eYCdg3Cg5RUqR9BUTG-226" value="" style="shape=partialRectangle;html=1;whiteSpace=wrap;connectable=0;strokeColor=inherit;overflow=hidden;fillColor=none;top=0;left=0;bottom=0;right=0;pointerEvents=1;fontSize=16;fontStyle=1" parent="W8eYCdg3Cg5RUqR9BUTG-85" vertex="1">
          <mxGeometry x="663" y="461" width="59" height="59" as="geometry">
            <mxRectangle width="59" height="59" as="alternateBounds" />
          </mxGeometry>
        </mxCell>
        <mxCell id="W8eYCdg3Cg5RUqR9BUTG-227" value="" style="shape=ellipse;fillColor=#f8cecc;strokeColor=#b85450;html=1;sketch=0;" parent="W8eYCdg3Cg5RUqR9BUTG-85" vertex="1">
          <mxGeometry x="46" y="427" width="10" height="10" as="geometry" />
        </mxCell>
        <mxCell id="W8eYCdg3Cg5RUqR9BUTG-228" value="" style="shape=ellipse;fillColor=#f8cecc;strokeColor=#b85450;html=1;sketch=0;" parent="W8eYCdg3Cg5RUqR9BUTG-85" vertex="1">
          <mxGeometry x="104" y="427" width="10" height="10" as="geometry" />
        </mxCell>
        <mxCell id="W8eYCdg3Cg5RUqR9BUTG-229" value="" style="shape=ellipse;fillColor=#f8cecc;strokeColor=#b85450;html=1;sketch=0;" parent="W8eYCdg3Cg5RUqR9BUTG-85" vertex="1">
          <mxGeometry x="163" y="427" width="10" height="10" as="geometry" />
        </mxCell>
        <mxCell id="W8eYCdg3Cg5RUqR9BUTG-230" value="" style="shape=ellipse;fillColor=#f8cecc;strokeColor=#b85450;html=1;sketch=0;" parent="W8eYCdg3Cg5RUqR9BUTG-85" vertex="1">
          <mxGeometry x="221" y="427" width="10" height="10" as="geometry" />
        </mxCell>
        <mxCell id="W8eYCdg3Cg5RUqR9BUTG-231" value="" style="shape=ellipse;fillColor=#f8cecc;strokeColor=#b85450;html=1;sketch=0;" parent="W8eYCdg3Cg5RUqR9BUTG-85" vertex="1">
          <mxGeometry x="279" y="427" width="10" height="10" as="geometry" />
        </mxCell>
        <mxCell id="W8eYCdg3Cg5RUqR9BUTG-232" value="" style="shape=ellipse;fillColor=#f8cecc;strokeColor=#b85450;html=1;sketch=0;" parent="W8eYCdg3Cg5RUqR9BUTG-85" vertex="1">
          <mxGeometry x="338" y="427" width="10" height="10" as="geometry" />
        </mxCell>
        <mxCell id="W8eYCdg3Cg5RUqR9BUTG-233" value="" style="shape=ellipse;fillColor=#f8cecc;strokeColor=#b85450;html=1;sketch=0;" parent="W8eYCdg3Cg5RUqR9BUTG-85" vertex="1">
          <mxGeometry x="396" y="427" width="10" height="10" as="geometry" />
        </mxCell>
        <mxCell id="W8eYCdg3Cg5RUqR9BUTG-234" value="" style="shape=ellipse;fillColor=#f8cecc;strokeColor=#b85450;html=1;sketch=0;" parent="W8eYCdg3Cg5RUqR9BUTG-85" vertex="1">
          <mxGeometry x="454" y="427" width="10" height="10" as="geometry" />
        </mxCell>
        <mxCell id="W8eYCdg3Cg5RUqR9BUTG-235" value="" style="shape=ellipse;fillColor=#f8cecc;strokeColor=#b85450;html=1;sketch=0;" parent="W8eYCdg3Cg5RUqR9BUTG-85" vertex="1">
          <mxGeometry x="513" y="427" width="10" height="10" as="geometry" />
        </mxCell>
        <mxCell id="W8eYCdg3Cg5RUqR9BUTG-236" value="" style="shape=ellipse;fillColor=#f8cecc;strokeColor=#b85450;html=1;sketch=0;" parent="W8eYCdg3Cg5RUqR9BUTG-85" vertex="1">
          <mxGeometry x="571" y="427" width="10" height="10" as="geometry" />
        </mxCell>
        <mxCell id="W8eYCdg3Cg5RUqR9BUTG-237" value="" style="shape=ellipse;fillColor=#f8cecc;strokeColor=#b85450;html=1;sketch=0;" parent="W8eYCdg3Cg5RUqR9BUTG-85" vertex="1">
          <mxGeometry x="629" y="427" width="10" height="10" as="geometry" />
        </mxCell>
        <mxCell id="W8eYCdg3Cg5RUqR9BUTG-238" value="" style="shape=ellipse;fillColor=#f8cecc;strokeColor=#b85450;html=1;sketch=0;" parent="W8eYCdg3Cg5RUqR9BUTG-85" vertex="1">
          <mxGeometry x="688" y="427" width="10" height="10" as="geometry" />
        </mxCell>
        <mxCell id="W8eYCdg3Cg5RUqR9BUTG-239" value="" style="shape=ellipse;fillColor=#f8cecc;strokeColor=#b85450;html=1;sketch=0;" parent="W8eYCdg3Cg5RUqR9BUTG-85" vertex="1">
          <mxGeometry x="46" y="485" width="10" height="10" as="geometry" />
        </mxCell>
        <mxCell id="W8eYCdg3Cg5RUqR9BUTG-240" value="" style="shape=ellipse;fillColor=#f8cecc;strokeColor=#b85450;html=1;sketch=0;" parent="W8eYCdg3Cg5RUqR9BUTG-85" vertex="1">
          <mxGeometry x="104" y="485" width="10" height="10" as="geometry" />
        </mxCell>
        <mxCell id="W8eYCdg3Cg5RUqR9BUTG-241" value="" style="shape=ellipse;fillColor=#f8cecc;strokeColor=#b85450;html=1;sketch=0;" parent="W8eYCdg3Cg5RUqR9BUTG-85" vertex="1">
          <mxGeometry x="163" y="485" width="10" height="10" as="geometry" />
        </mxCell>
        <mxCell id="W8eYCdg3Cg5RUqR9BUTG-242" value="" style="shape=ellipse;fillColor=#f8cecc;strokeColor=#b85450;html=1;sketch=0;" parent="W8eYCdg3Cg5RUqR9BUTG-85" vertex="1">
          <mxGeometry x="221" y="485" width="10" height="10" as="geometry" />
        </mxCell>
        <mxCell id="W8eYCdg3Cg5RUqR9BUTG-243" value="" style="shape=ellipse;fillColor=#f8cecc;strokeColor=#b85450;html=1;sketch=0;" parent="W8eYCdg3Cg5RUqR9BUTG-85" vertex="1">
          <mxGeometry x="279" y="485" width="10" height="10" as="geometry" />
        </mxCell>
        <mxCell id="W8eYCdg3Cg5RUqR9BUTG-244" value="" style="shape=ellipse;fillColor=#f8cecc;strokeColor=#b85450;html=1;sketch=0;" parent="W8eYCdg3Cg5RUqR9BUTG-85" vertex="1">
          <mxGeometry x="338" y="485" width="10" height="10" as="geometry" />
        </mxCell>
        <mxCell id="W8eYCdg3Cg5RUqR9BUTG-245" value="" style="shape=ellipse;fillColor=#f8cecc;strokeColor=#b85450;html=1;sketch=0;" parent="W8eYCdg3Cg5RUqR9BUTG-85" vertex="1">
          <mxGeometry x="396" y="485" width="10" height="10" as="geometry" />
        </mxCell>
        <mxCell id="W8eYCdg3Cg5RUqR9BUTG-246" value="" style="shape=ellipse;fillColor=#f8cecc;strokeColor=#b85450;html=1;sketch=0;" parent="W8eYCdg3Cg5RUqR9BUTG-85" vertex="1">
          <mxGeometry x="454" y="485" width="10" height="10" as="geometry" />
        </mxCell>
        <mxCell id="W8eYCdg3Cg5RUqR9BUTG-247" value="" style="shape=ellipse;fillColor=#f8cecc;strokeColor=#b85450;html=1;sketch=0;" parent="W8eYCdg3Cg5RUqR9BUTG-85" vertex="1">
          <mxGeometry x="513" y="485" width="10" height="10" as="geometry" />
        </mxCell>
        <mxCell id="W8eYCdg3Cg5RUqR9BUTG-248" value="" style="shape=ellipse;fillColor=#f8cecc;strokeColor=#b85450;html=1;sketch=0;" parent="W8eYCdg3Cg5RUqR9BUTG-85" vertex="1">
          <mxGeometry x="571" y="485" width="10" height="10" as="geometry" />
        </mxCell>
        <mxCell id="W8eYCdg3Cg5RUqR9BUTG-249" value="" style="shape=ellipse;fillColor=#f8cecc;strokeColor=#b85450;html=1;sketch=0;" parent="W8eYCdg3Cg5RUqR9BUTG-85" vertex="1">
          <mxGeometry x="629" y="485" width="10" height="10" as="geometry" />
        </mxCell>
        <mxCell id="W8eYCdg3Cg5RUqR9BUTG-250" value="" style="shape=ellipse;fillColor=#f8cecc;strokeColor=#b85450;html=1;sketch=0;" parent="W8eYCdg3Cg5RUqR9BUTG-85" vertex="1">
          <mxGeometry x="688" y="485" width="10" height="10" as="geometry" />
        </mxCell>
        <mxCell id="W8eYCdg3Cg5RUqR9BUTG-251" value="" style="shape=partialRectangle;html=1;whiteSpace=wrap;connectable=0;strokeColor=inherit;overflow=hidden;fillColor=none;top=0;left=0;bottom=0;right=0;pointerEvents=1;fontSize=16;fontStyle=1" parent="W8eYCdg3Cg5RUqR9BUTG-85" vertex="1">
          <mxGeometry x="80" y="579" width="59" height="59" as="geometry">
            <mxRectangle width="59" height="59" as="alternateBounds" />
          </mxGeometry>
        </mxCell>
        <mxCell id="W8eYCdg3Cg5RUqR9BUTG-252" value="" style="shape=partialRectangle;html=1;whiteSpace=wrap;connectable=0;strokeColor=inherit;overflow=hidden;fillColor=none;top=0;left=0;bottom=0;right=0;pointerEvents=1;fontSize=16;fontStyle=1" parent="W8eYCdg3Cg5RUqR9BUTG-85" vertex="1">
          <mxGeometry x="139" y="579" width="58" height="59" as="geometry">
            <mxRectangle width="58" height="59" as="alternateBounds" />
          </mxGeometry>
        </mxCell>
        <mxCell id="W8eYCdg3Cg5RUqR9BUTG-253" value="" style="shape=partialRectangle;html=1;whiteSpace=wrap;connectable=0;strokeColor=inherit;overflow=hidden;fillColor=none;top=0;left=0;bottom=0;right=0;pointerEvents=1;fontSize=16;fontStyle=1" parent="W8eYCdg3Cg5RUqR9BUTG-85" vertex="1">
          <mxGeometry x="197" y="579" width="58" height="59" as="geometry">
            <mxRectangle width="58" height="59" as="alternateBounds" />
          </mxGeometry>
        </mxCell>
        <mxCell id="W8eYCdg3Cg5RUqR9BUTG-254" value="" style="shape=partialRectangle;html=1;whiteSpace=wrap;connectable=0;strokeColor=inherit;overflow=hidden;fillColor=none;top=0;left=0;bottom=0;right=0;pointerEvents=1;fontSize=16;fontStyle=1" parent="W8eYCdg3Cg5RUqR9BUTG-85" vertex="1">
          <mxGeometry x="255" y="579" width="59" height="59" as="geometry">
            <mxRectangle width="59" height="59" as="alternateBounds" />
          </mxGeometry>
        </mxCell>
        <mxCell id="W8eYCdg3Cg5RUqR9BUTG-255" value="" style="shape=partialRectangle;html=1;whiteSpace=wrap;connectable=0;strokeColor=inherit;overflow=hidden;fillColor=none;top=0;left=0;bottom=0;right=0;pointerEvents=1;fontSize=16;fontStyle=1" parent="W8eYCdg3Cg5RUqR9BUTG-85" vertex="1">
          <mxGeometry x="314" y="579" width="57" height="59" as="geometry">
            <mxRectangle width="57" height="59" as="alternateBounds" />
          </mxGeometry>
        </mxCell>
        <mxCell id="W8eYCdg3Cg5RUqR9BUTG-256" value="" style="shape=partialRectangle;html=1;whiteSpace=wrap;connectable=0;strokeColor=inherit;overflow=hidden;fillColor=none;top=0;left=0;bottom=0;right=0;pointerEvents=1;fontSize=16;fontStyle=1" parent="W8eYCdg3Cg5RUqR9BUTG-85" vertex="1">
          <mxGeometry x="371" y="579" width="59" height="59" as="geometry">
            <mxRectangle width="59" height="59" as="alternateBounds" />
          </mxGeometry>
        </mxCell>
        <mxCell id="W8eYCdg3Cg5RUqR9BUTG-257" value="" style="shape=partialRectangle;html=1;whiteSpace=wrap;connectable=0;strokeColor=inherit;overflow=hidden;fillColor=none;top=0;left=0;bottom=0;right=0;pointerEvents=1;fontSize=16;fontStyle=1" parent="W8eYCdg3Cg5RUqR9BUTG-85" vertex="1">
          <mxGeometry x="430" y="579" width="59" height="59" as="geometry">
            <mxRectangle width="59" height="59" as="alternateBounds" />
          </mxGeometry>
        </mxCell>
        <mxCell id="W8eYCdg3Cg5RUqR9BUTG-258" value="" style="shape=partialRectangle;html=1;whiteSpace=wrap;connectable=0;strokeColor=inherit;overflow=hidden;fillColor=none;top=0;left=0;bottom=0;right=0;pointerEvents=1;fontSize=16;fontStyle=1" parent="W8eYCdg3Cg5RUqR9BUTG-85" vertex="1">
          <mxGeometry x="489" y="579" width="58" height="59" as="geometry">
            <mxRectangle width="58" height="59" as="alternateBounds" />
          </mxGeometry>
        </mxCell>
        <mxCell id="W8eYCdg3Cg5RUqR9BUTG-259" value="" style="shape=partialRectangle;html=1;whiteSpace=wrap;connectable=0;strokeColor=inherit;overflow=hidden;fillColor=none;top=0;left=0;bottom=0;right=0;pointerEvents=1;fontSize=16;fontStyle=1" parent="W8eYCdg3Cg5RUqR9BUTG-85" vertex="1">
          <mxGeometry x="547" y="579" width="58" height="59" as="geometry">
            <mxRectangle width="58" height="59" as="alternateBounds" />
          </mxGeometry>
        </mxCell>
        <mxCell id="W8eYCdg3Cg5RUqR9BUTG-260" value="" style="shape=partialRectangle;html=1;whiteSpace=wrap;connectable=0;strokeColor=inherit;overflow=hidden;fillColor=none;top=0;left=0;bottom=0;right=0;pointerEvents=1;fontSize=16;fontStyle=1" parent="W8eYCdg3Cg5RUqR9BUTG-85" vertex="1">
          <mxGeometry x="605" y="579" width="58" height="59" as="geometry">
            <mxRectangle width="58" height="59" as="alternateBounds" />
          </mxGeometry>
        </mxCell>
        <mxCell id="W8eYCdg3Cg5RUqR9BUTG-261" value="" style="shape=partialRectangle;html=1;whiteSpace=wrap;connectable=0;strokeColor=inherit;overflow=hidden;fillColor=none;top=0;left=0;bottom=0;right=0;pointerEvents=1;fontSize=16;fontStyle=1" parent="W8eYCdg3Cg5RUqR9BUTG-85" vertex="1">
          <mxGeometry x="663" y="579" width="59" height="59" as="geometry">
            <mxRectangle width="59" height="59" as="alternateBounds" />
          </mxGeometry>
        </mxCell>
        <mxCell id="W8eYCdg3Cg5RUqR9BUTG-263" value="" style="shape=ellipse;fillColor=#f8cecc;strokeColor=#b85450;html=1;sketch=0;" parent="W8eYCdg3Cg5RUqR9BUTG-85" vertex="1">
          <mxGeometry x="104" y="545" width="10" height="10" as="geometry" />
        </mxCell>
        <mxCell id="W8eYCdg3Cg5RUqR9BUTG-264" value="" style="shape=ellipse;fillColor=#f8cecc;strokeColor=#b85450;html=1;sketch=0;" parent="W8eYCdg3Cg5RUqR9BUTG-85" vertex="1">
          <mxGeometry x="163" y="545" width="10" height="10" as="geometry" />
        </mxCell>
        <mxCell id="W8eYCdg3Cg5RUqR9BUTG-265" value="" style="shape=ellipse;fillColor=#f8cecc;strokeColor=#b85450;html=1;sketch=0;" parent="W8eYCdg3Cg5RUqR9BUTG-85" vertex="1">
          <mxGeometry x="221" y="545" width="10" height="10" as="geometry" />
        </mxCell>
        <mxCell id="W8eYCdg3Cg5RUqR9BUTG-266" value="" style="shape=ellipse;fillColor=#f8cecc;strokeColor=#b85450;html=1;sketch=0;" parent="W8eYCdg3Cg5RUqR9BUTG-85" vertex="1">
          <mxGeometry x="279" y="545" width="10" height="10" as="geometry" />
        </mxCell>
        <mxCell id="W8eYCdg3Cg5RUqR9BUTG-267" value="" style="shape=ellipse;fillColor=#f8cecc;strokeColor=#b85450;html=1;sketch=0;" parent="W8eYCdg3Cg5RUqR9BUTG-85" vertex="1">
          <mxGeometry x="338" y="545" width="10" height="10" as="geometry" />
        </mxCell>
        <mxCell id="W8eYCdg3Cg5RUqR9BUTG-268" value="" style="shape=ellipse;fillColor=#f8cecc;strokeColor=#b85450;html=1;sketch=0;" parent="W8eYCdg3Cg5RUqR9BUTG-85" vertex="1">
          <mxGeometry x="396" y="545" width="10" height="10" as="geometry" />
        </mxCell>
        <mxCell id="W8eYCdg3Cg5RUqR9BUTG-269" value="" style="shape=ellipse;fillColor=#f8cecc;strokeColor=#b85450;html=1;sketch=0;" parent="W8eYCdg3Cg5RUqR9BUTG-85" vertex="1">
          <mxGeometry x="454" y="545" width="10" height="10" as="geometry" />
        </mxCell>
        <mxCell id="W8eYCdg3Cg5RUqR9BUTG-270" value="" style="shape=ellipse;fillColor=#f8cecc;strokeColor=#b85450;html=1;sketch=0;" parent="W8eYCdg3Cg5RUqR9BUTG-85" vertex="1">
          <mxGeometry x="513" y="545" width="10" height="10" as="geometry" />
        </mxCell>
        <mxCell id="W8eYCdg3Cg5RUqR9BUTG-271" value="" style="shape=ellipse;fillColor=#f8cecc;strokeColor=#b85450;html=1;sketch=0;" parent="W8eYCdg3Cg5RUqR9BUTG-85" vertex="1">
          <mxGeometry x="571" y="545" width="10" height="10" as="geometry" />
        </mxCell>
        <mxCell id="W8eYCdg3Cg5RUqR9BUTG-272" value="" style="shape=ellipse;fillColor=#f8cecc;strokeColor=#b85450;html=1;sketch=0;" parent="W8eYCdg3Cg5RUqR9BUTG-85" vertex="1">
          <mxGeometry x="629" y="545" width="10" height="10" as="geometry" />
        </mxCell>
        <mxCell id="W8eYCdg3Cg5RUqR9BUTG-273" value="" style="shape=ellipse;fillColor=#f8cecc;strokeColor=#b85450;html=1;sketch=0;" parent="W8eYCdg3Cg5RUqR9BUTG-85" vertex="1">
          <mxGeometry x="688" y="545" width="10" height="10" as="geometry" />
        </mxCell>
        <mxCell id="W8eYCdg3Cg5RUqR9BUTG-275" value="" style="shape=ellipse;fillColor=#f8cecc;strokeColor=#b85450;html=1;sketch=0;" parent="W8eYCdg3Cg5RUqR9BUTG-85" vertex="1">
          <mxGeometry x="104" y="603" width="10" height="10" as="geometry" />
        </mxCell>
        <mxCell id="W8eYCdg3Cg5RUqR9BUTG-276" value="" style="shape=ellipse;fillColor=#f8cecc;strokeColor=#b85450;html=1;sketch=0;" parent="W8eYCdg3Cg5RUqR9BUTG-85" vertex="1">
          <mxGeometry x="163" y="603" width="10" height="10" as="geometry" />
        </mxCell>
        <mxCell id="W8eYCdg3Cg5RUqR9BUTG-277" value="" style="shape=ellipse;fillColor=#f8cecc;strokeColor=#b85450;html=1;sketch=0;" parent="W8eYCdg3Cg5RUqR9BUTG-85" vertex="1">
          <mxGeometry x="221" y="603" width="10" height="10" as="geometry" />
        </mxCell>
        <mxCell id="W8eYCdg3Cg5RUqR9BUTG-278" value="" style="shape=ellipse;fillColor=#f8cecc;strokeColor=#b85450;html=1;sketch=0;" parent="W8eYCdg3Cg5RUqR9BUTG-85" vertex="1">
          <mxGeometry x="279" y="603" width="10" height="10" as="geometry" />
        </mxCell>
        <mxCell id="W8eYCdg3Cg5RUqR9BUTG-279" value="" style="shape=ellipse;fillColor=#f8cecc;strokeColor=#b85450;html=1;sketch=0;" parent="W8eYCdg3Cg5RUqR9BUTG-85" vertex="1">
          <mxGeometry x="338" y="603" width="10" height="10" as="geometry" />
        </mxCell>
        <mxCell id="W8eYCdg3Cg5RUqR9BUTG-280" value="" style="shape=ellipse;fillColor=#f8cecc;strokeColor=#b85450;html=1;sketch=0;" parent="W8eYCdg3Cg5RUqR9BUTG-85" vertex="1">
          <mxGeometry x="396" y="603" width="10" height="10" as="geometry" />
        </mxCell>
        <mxCell id="W8eYCdg3Cg5RUqR9BUTG-281" value="" style="shape=ellipse;fillColor=#f8cecc;strokeColor=#b85450;html=1;sketch=0;" parent="W8eYCdg3Cg5RUqR9BUTG-85" vertex="1">
          <mxGeometry x="454" y="603" width="10" height="10" as="geometry" />
        </mxCell>
        <mxCell id="W8eYCdg3Cg5RUqR9BUTG-282" value="" style="shape=ellipse;fillColor=#f8cecc;strokeColor=#b85450;html=1;sketch=0;" parent="W8eYCdg3Cg5RUqR9BUTG-85" vertex="1">
          <mxGeometry x="513" y="603" width="10" height="10" as="geometry" />
        </mxCell>
        <mxCell id="W8eYCdg3Cg5RUqR9BUTG-283" value="" style="shape=ellipse;fillColor=#f8cecc;strokeColor=#b85450;html=1;sketch=0;" parent="W8eYCdg3Cg5RUqR9BUTG-85" vertex="1">
          <mxGeometry x="571" y="603" width="10" height="10" as="geometry" />
        </mxCell>
        <mxCell id="W8eYCdg3Cg5RUqR9BUTG-284" value="" style="shape=ellipse;fillColor=#f8cecc;strokeColor=#b85450;html=1;sketch=0;" parent="W8eYCdg3Cg5RUqR9BUTG-85" vertex="1">
          <mxGeometry x="629" y="603" width="10" height="10" as="geometry" />
        </mxCell>
        <mxCell id="W8eYCdg3Cg5RUqR9BUTG-285" value="" style="shape=ellipse;fillColor=#f8cecc;strokeColor=#b85450;html=1;sketch=0;" parent="W8eYCdg3Cg5RUqR9BUTG-85" vertex="1">
          <mxGeometry x="688" y="603" width="10" height="10" as="geometry" />
        </mxCell>
        <mxCell id="W8eYCdg3Cg5RUqR9BUTG-290" value="" style="shape=ellipse;fillColor=#f8cecc;strokeColor=#b85450;html=1;sketch=0;" parent="W8eYCdg3Cg5RUqR9BUTG-85" vertex="1">
          <mxGeometry x="279" y="720" width="10" height="10" as="geometry" />
        </mxCell>
        <mxCell id="W8eYCdg3Cg5RUqR9BUTG-291" value="" style="shape=ellipse;fillColor=#f8cecc;strokeColor=#b85450;html=1;sketch=0;" parent="W8eYCdg3Cg5RUqR9BUTG-85" vertex="1">
          <mxGeometry x="338" y="720" width="10" height="10" as="geometry" />
        </mxCell>
        <mxCell id="W8eYCdg3Cg5RUqR9BUTG-292" value="" style="shape=ellipse;fillColor=#f8cecc;strokeColor=#b85450;html=1;sketch=0;" parent="W8eYCdg3Cg5RUqR9BUTG-85" vertex="1">
          <mxGeometry x="396" y="720" width="10" height="10" as="geometry" />
        </mxCell>
        <mxCell id="W8eYCdg3Cg5RUqR9BUTG-293" value="" style="shape=ellipse;fillColor=#f8cecc;strokeColor=#b85450;html=1;sketch=0;" parent="W8eYCdg3Cg5RUqR9BUTG-85" vertex="1">
          <mxGeometry x="454" y="720" width="10" height="10" as="geometry" />
        </mxCell>
        <mxCell id="W8eYCdg3Cg5RUqR9BUTG-294" value="" style="shape=ellipse;fillColor=#f8cecc;strokeColor=#b85450;html=1;sketch=0;" parent="W8eYCdg3Cg5RUqR9BUTG-85" vertex="1">
          <mxGeometry x="513" y="720" width="10" height="10" as="geometry" />
        </mxCell>
        <mxCell id="W8eYCdg3Cg5RUqR9BUTG-295" value="" style="shape=ellipse;fillColor=#f8cecc;strokeColor=#b85450;html=1;sketch=0;" parent="W8eYCdg3Cg5RUqR9BUTG-85" vertex="1">
          <mxGeometry x="571" y="720" width="10" height="10" as="geometry" />
        </mxCell>
        <mxCell id="W8eYCdg3Cg5RUqR9BUTG-296" value="" style="shape=ellipse;fillColor=#f8cecc;strokeColor=#b85450;html=1;sketch=0;" parent="W8eYCdg3Cg5RUqR9BUTG-85" vertex="1">
          <mxGeometry x="629" y="720" width="10" height="10" as="geometry" />
        </mxCell>
        <mxCell id="W8eYCdg3Cg5RUqR9BUTG-297" value="" style="shape=ellipse;fillColor=#f8cecc;strokeColor=#b85450;html=1;sketch=0;" parent="W8eYCdg3Cg5RUqR9BUTG-85" vertex="1">
          <mxGeometry x="688" y="720" width="10" height="10" as="geometry" />
        </mxCell>
        <mxCell id="W8eYCdg3Cg5RUqR9BUTG-300" value="" style="shape=ellipse;fillColor=#f8cecc;strokeColor=#b85450;html=1;sketch=0;" parent="W8eYCdg3Cg5RUqR9BUTG-85" vertex="1">
          <mxGeometry x="163" y="662" width="10" height="10" as="geometry" />
        </mxCell>
        <mxCell id="W8eYCdg3Cg5RUqR9BUTG-301" value="" style="shape=ellipse;fillColor=#f8cecc;strokeColor=#b85450;html=1;sketch=0;" parent="W8eYCdg3Cg5RUqR9BUTG-85" vertex="1">
          <mxGeometry x="221" y="662" width="10" height="10" as="geometry" />
        </mxCell>
        <mxCell id="W8eYCdg3Cg5RUqR9BUTG-302" value="" style="shape=ellipse;fillColor=#f8cecc;strokeColor=#b85450;html=1;sketch=0;" parent="W8eYCdg3Cg5RUqR9BUTG-85" vertex="1">
          <mxGeometry x="279" y="662" width="10" height="10" as="geometry" />
        </mxCell>
        <mxCell id="W8eYCdg3Cg5RUqR9BUTG-305" value="" style="shape=ellipse;fillColor=#f8cecc;strokeColor=#b85450;html=1;sketch=0;" parent="W8eYCdg3Cg5RUqR9BUTG-85" vertex="1">
          <mxGeometry x="454" y="662" width="10" height="10" as="geometry" />
        </mxCell>
        <mxCell id="W8eYCdg3Cg5RUqR9BUTG-306" value="" style="shape=ellipse;fillColor=#f8cecc;strokeColor=#b85450;html=1;sketch=0;" parent="W8eYCdg3Cg5RUqR9BUTG-85" vertex="1">
          <mxGeometry x="512" y="662" width="10" height="10" as="geometry" />
        </mxCell>
        <mxCell id="W8eYCdg3Cg5RUqR9BUTG-307" value="" style="shape=ellipse;fillColor=#f8cecc;strokeColor=#b85450;html=1;sketch=0;" parent="W8eYCdg3Cg5RUqR9BUTG-85" vertex="1">
          <mxGeometry x="571" y="662" width="10" height="10" as="geometry" />
        </mxCell>
        <mxCell id="W8eYCdg3Cg5RUqR9BUTG-308" value="" style="shape=ellipse;fillColor=#f8cecc;strokeColor=#b85450;html=1;sketch=0;" parent="W8eYCdg3Cg5RUqR9BUTG-85" vertex="1">
          <mxGeometry x="629" y="662" width="10" height="10" as="geometry" />
        </mxCell>
        <mxCell id="W8eYCdg3Cg5RUqR9BUTG-309" value="" style="shape=ellipse;fillColor=#f8cecc;strokeColor=#b85450;html=1;sketch=0;" parent="W8eYCdg3Cg5RUqR9BUTG-85" vertex="1">
          <mxGeometry x="687" y="662" width="10" height="10" as="geometry" />
        </mxCell>
        <mxCell id="W8eYCdg3Cg5RUqR9BUTG-502" value="Sub" parent="0" />
        <mxCell id="W8eYCdg3Cg5RUqR9BUTG-529" value="&lt;span style=&quot;text-wrap: nowrap;&quot;&gt;&lt;font style=&quot;font-size: 24px;&quot;&gt;(a) \(12 \times 12 \) Position Grid&lt;/font&gt;&lt;/span&gt;" style="text;html=1;align=center;verticalAlign=middle;whiteSpace=wrap;rounded=0;" parent="W8eYCdg3Cg5RUqR9BUTG-502" vertex="1">
          <mxGeometry x="20" y="760" width="700" height="30" as="geometry" />
        </mxCell>
        <mxCell id="W8eYCdg3Cg5RUqR9BUTG-530" value="&lt;font style=&quot;font-size: 24px;&quot;&gt;&lt;span style=&quot;text-wrap: nowrap;&quot;&gt;&lt;font style=&quot;font-size: 24px;&quot;&gt;(b) Each S&lt;/font&gt;&lt;/span&gt;&lt;span style=&quot;text-wrap: nowrap;&quot;&gt;quare&lt;/span&gt;&lt;/font&gt;" style="text;html=1;align=center;verticalAlign=middle;whiteSpace=wrap;rounded=0;" parent="W8eYCdg3Cg5RUqR9BUTG-502" vertex="1">
          <mxGeometry x="910" y="760" width="150" height="30" as="geometry" />
        </mxCell>
        <mxCell id="87000_8H5sjs24aMDQpO-0" value="" style="endArrow=none;dashed=1;html=1;rounded=0;entryX=0;entryY=0;entryDx=0;entryDy=0;fillColor=#d5e8d4;strokeColor=#82b366;exitX=1;exitY=-0.001;exitDx=0;exitDy=0;exitPerimeter=0;strokeWidth=1.5;" parent="W8eYCdg3Cg5RUqR9BUTG-502" source="Ubt92ZxgmZUFssLvZX3g-117" target="KcOYNywgns84QisbnSwY-5" edge="1">
          <mxGeometry width="50" height="50" relative="1" as="geometry">
            <mxPoint x="720" y="580" as="sourcePoint" />
            <mxPoint x="910" y="599" as="targetPoint" />
          </mxGeometry>
        </mxCell>
        <mxCell id="87000_8H5sjs24aMDQpO-1" value="" style="endArrow=none;dashed=1;html=1;rounded=0;entryX=0;entryY=1;entryDx=0;entryDy=0;fillColor=#d5e8d4;strokeColor=#82b366;exitX=1;exitY=0.75;exitDx=0;exitDy=0;strokeWidth=1.5;" parent="W8eYCdg3Cg5RUqR9BUTG-502" source="Ubt92ZxgmZUFssLvZX3g-12" target="KcOYNywgns84QisbnSwY-5" edge="1">
          <mxGeometry width="50" height="50" relative="1" as="geometry">
            <mxPoint x="720" y="640" as="sourcePoint" />
            <mxPoint x="910" y="748.9999999999998" as="targetPoint" />
          </mxGeometry>
        </mxCell>
        <mxCell id="IIAiuKzzWedpKXB_Eh5K-4" value="Annotation" parent="0" />
        <mxCell id="1Nd74MI-oD0MaCeVceLl-0" value="" style="rounded=0;whiteSpace=wrap;html=1;fillColor=#f5f5f5;strokeColor=#666666;fontColor=#333333;" parent="IIAiuKzzWedpKXB_Eh5K-4" vertex="1">
          <mxGeometry x="880" y="80" width="244" height="290" as="geometry" />
        </mxCell>
        <mxCell id="1Nd74MI-oD0MaCeVceLl-1" value="" style="shape=ellipse;fillColor=#f8cecc;strokeColor=#b85450;html=1;sketch=0;" parent="IIAiuKzzWedpKXB_Eh5K-4" vertex="1">
          <mxGeometry x="910" y="103.75" width="22.5" height="22.5" as="geometry" />
        </mxCell>
        <mxCell id="1Nd74MI-oD0MaCeVceLl-2" value="&lt;span style=&quot;text-wrap: nowrap;&quot;&gt;&lt;font style=&quot;font-size: 22px;&quot;&gt;: Main-position&lt;/font&gt;&lt;/span&gt;" style="text;html=1;align=left;verticalAlign=middle;whiteSpace=wrap;rounded=0;" parent="IIAiuKzzWedpKXB_Eh5K-4" vertex="1">
          <mxGeometry x="945.25" y="100" width="150" height="30" as="geometry" />
        </mxCell>
        <mxCell id="1Nd74MI-oD0MaCeVceLl-3" value="&lt;font style=&quot;font-size: 18px;&quot;&gt;\(i\)&lt;/font&gt;" style="shape=ellipse;fillColor=#ffe6cc;strokeColor=#d79b00;html=1;sketch=0;" parent="IIAiuKzzWedpKXB_Eh5K-4" vertex="1">
          <mxGeometry x="910" y="163.75" width="22.5" height="22.5" as="geometry" />
        </mxCell>
        <mxCell id="1Nd74MI-oD0MaCeVceLl-4" value="&lt;font style=&quot;&quot;&gt;&lt;span style=&quot;font-size: 22px; text-wrap: nowrap;&quot;&gt;: \(i\)th Sub-position&lt;/span&gt;&lt;/font&gt;" style="text;html=1;align=left;verticalAlign=middle;whiteSpace=wrap;rounded=0;" parent="IIAiuKzzWedpKXB_Eh5K-4" vertex="1">
          <mxGeometry x="945.25" y="160" width="150" height="30" as="geometry" />
        </mxCell>
        <mxCell id="1Nd74MI-oD0MaCeVceLl-5" value="" style="shape=image;verticalLabelPosition=bottom;labelBackgroundColor=default;verticalAlign=top;aspect=fixed;imageAspect=0;image=data:image/svg+xml,PHN2ZyB4bWxucz0iaHR0cDovL3d3dy53My5vcmcvMjAwMC9zdmciIHdpZHRoPSI0OCIgdmlld0JveD0iMCAwIDQ4IDQ4IiBoZWlnaHQ9IjQ4IiBmaWxsPSJub25lIj48cmVjdCB5PSIyOCIgeD0iNCIgd2lkdGg9IjQwIiBzdHJva2Utd2lkdGg9IjQiIHN0cm9rZS1saW5lam9pbj0icm91bmQiIHN0cm9rZS1saW5lY2FwPSJyb3VuZCIgc3Ryb2tlPSIjMDAwIiByeD0iMiIgaGVpZ2h0PSIxNCIgZmlsbD0iIzJmODhmZiIvPjxwYXRoIHN0cm9rZS13aWR0aD0iNCIgc3Ryb2tlLWxpbmVqb2luPSJyb3VuZCIgc3Ryb2tlLWxpbmVjYXA9InJvdW5kIiBzdHJva2U9IiNmZmYiIGQ9Im0xNCAzNWg4Ii8+PHJlY3QgeT0iMzMiIHg9IjMwIiB3aWR0aD0iNCIgcng9IjIiIGhlaWdodD0iNCIgZmlsbD0iI2ZmZiIvPjxnIHN0cm9rZS13aWR0aD0iNCIgc3Ryb2tlLWxpbmVqb2luPSJyb3VuZCIgc3Ryb2tlLWxpbmVjYXA9InJvdW5kIiBzdHJva2U9IiMwMDAiPjxwYXRoIGQ9Im0xMiAyOHYtMjAiLz48cGF0aCBkPSJtMzYgMjh2LTIwIi8+PC9nPjwvc3ZnPg==;" parent="IIAiuKzzWedpKXB_Eh5K-4" vertex="1">
          <mxGeometry x="897.25" y="201" width="48" height="48" as="geometry" />
        </mxCell>
        <mxCell id="1Nd74MI-oD0MaCeVceLl-6" value="&lt;span style=&quot;text-wrap: nowrap;&quot;&gt;&lt;font style=&quot;font-size: 22px;&quot;&gt;: WiFi Device&lt;/font&gt;&lt;/span&gt;" style="text;html=1;align=left;verticalAlign=middle;whiteSpace=wrap;rounded=0;" parent="IIAiuKzzWedpKXB_Eh5K-4" vertex="1">
          <mxGeometry x="945.25" y="219" width="150" height="30" as="geometry" />
        </mxCell>
        <mxCell id="1Nd74MI-oD0MaCeVceLl-7" value="&lt;span style=&quot;text-wrap: nowrap;&quot;&gt;&lt;font style=&quot;font-size: 22px;&quot;&gt;TX:&amp;nbsp;&lt;/font&gt;&lt;/span&gt;&lt;span style=&quot;font-size: 22px; text-wrap: nowrap;&quot;&gt;Transmitter&lt;/span&gt;" style="text;html=1;align=left;verticalAlign=middle;whiteSpace=wrap;rounded=0;" parent="IIAiuKzzWedpKXB_Eh5K-4" vertex="1">
          <mxGeometry x="916" y="270" width="150" height="30" as="geometry" />
        </mxCell>
        <mxCell id="1Nd74MI-oD0MaCeVceLl-8" value="&lt;span style=&quot;text-wrap: nowrap;&quot;&gt;&lt;font style=&quot;font-size: 22px;&quot;&gt;RX:&amp;nbsp;&lt;/font&gt;&lt;/span&gt;&lt;span style=&quot;font-size: 22px; text-wrap: nowrap;&quot;&gt;Receiver&lt;/span&gt;" style="text;html=1;align=left;verticalAlign=middle;whiteSpace=wrap;rounded=0;" parent="IIAiuKzzWedpKXB_Eh5K-4" vertex="1">
          <mxGeometry x="916" y="320" width="150" height="30" as="geometry" />
        </mxCell>
      </root>
    </mxGraphModel>
  </diagram>
</mxfile>
